<!-- Gear icon stolen from the Octicons set on Icomoon -->
<svg viewBox="0 0 896 1024">
	<title>Gear icon (outline of a mechanical gear)</title>
	<path class="path1" d="M447.938 350c-89.407 0-161.938 72.531-161.938 162 0 89.375 72.531 162.062 161.938 162.062 89.438 0 161.438-72.688 161.438-162.062-0.001-89.469-72.001-162-161.438-162zM772.625 605.062l-29.188 70.312 58.937 115.75-72.188 72.188-118.436-55.937-70.312 28.875-35.688 109.25-4.562 14.5h-102.032l-44.156-123.312-70.312-29-115.904 58.688-72.156-72.125 55.875-118.5-28.969-70.25-123.534-40.313v-101.969l123.406-44.219 28.969-70.188-51.906-102.469-6.844-13.438 72.062-72.062 118.594 55.844 70.219-29.031 35.656-109.188 4.594-14.468h102l44.188 123.469 70.125 29.031 116.062-58.813 72.125 72.062-55.875 118.406 28.875 70.345 123.75 40.25v101.938l-123.375 44.374z"></path>
</svg>
