<!-- Link icon stolen from the Material Icons set on Icomoon -->
<svg version="1.1" xmlns="http://www.w3.org/2000/svg" xmlns:xlink="http://www.w3.org/1999/xlink" width="1024" height="1024" viewBox="0 0 1024 1024">
	<title>Link icon (a section of chain)</title>
	<path d="M726 298q88 0 150 63t62 151-62 151-150 63h-172v-82h172q54 0 93-39t39-93-39-93-93-39h-172v-82h172zM342 554v-84h340v84h-340zM166 512q0 54 39 93t93 39h172v82h-172q-88 0-150-63t-62-151 62-151 150-63h172v82h-172q-54 0-93 39t-39 93z"></path>
</svg>
