<!-- Mail icon stolen from the Entypo set on Icomoon -->
<svg viewBox="0 0 1024 1024">
	<title>Mail icon (closed envelope)</title>
	<path class="path1" d="M81.613 270.643c24.986 13.466 371.149 199.373 384.051 206.285 12.851 6.912 29.542 10.24 46.336 10.24 16.845 0 33.536-3.328 46.387-10.291 12.902-6.912 359.014-192.819 384-206.285 25.037-13.414 48.691-55.552 2.765-55.552h-866.253c-45.926 0-22.323 42.138 2.714 55.603zM952.986 373.043c-28.416 14.848-377.19 197.171-394.598 206.285s-29.542 10.291-46.387 10.291c-16.794 0-28.928-1.178-46.336-10.291s-366.234-191.488-394.598-206.285c-20.019-10.445-19.866 1.792-19.866 11.213s0 375.552 0 375.552c0 21.504 28.621 49.152 50.79 49.152h820.070c22.221 0 50.739-27.648 50.739-49.101 0 0 0-366.131 0-375.552 0-9.472 0.205-21.709-19.814-11.264z"></path>
</svg>
