<svg xmlns="http://www.w3.org/2000/svg"><symbol viewBox="0 0 1024 1024" id="icon-facebook"><title>Facebook icon (letter F)</title>  <path class="path1" d="M768 211.405h-146.227c-17.306 0-36.608 22.733-36.608 53.197v105.574h182.835v150.528h-182.835v452.096h-172.646v-452.045h-156.518v-150.579h156.518v-88.576c0-127.027 88.166-230.4 209.203-230.4h146.278v160.205z"/> </symbol><symbol viewBox="0 0 1024 1024" id="icon-github"><title>GitHub icon (circle with the outline cut out of the GitHub mascot, Octocat).</title>  <path d="M512 0c-282.88 0-512 229.248-512 512 0 226.24 146.688 418.112 350.080 485.76 25.6 4.8 35.008-11.008 35.008-24.64 0-12.16-0.448-44.352-0.64-87.040-142.464 30.912-172.48-68.672-172.48-68.672-23.296-59.136-56.96-74.88-56.96-74.88-46.4-31.744 3.584-31.104 3.584-31.104 51.392 3.584 78.4 52.736 78.4 52.736 45.696 78.272 119.872 55.68 149.12 42.56 4.608-33.088 17.792-55.68 32.448-68.48-113.728-12.8-233.216-56.832-233.216-252.992 0-55.872 19.84-101.568 52.672-137.408-5.76-12.928-23.040-64.96 4.48-135.488 0 0 42.88-13.76 140.8 52.48 40.96-11.392 84.48-17.024 128-17.28 43.52 0.256 87.040 5.888 128 17.28 97.28-66.24 140.16-52.48 140.16-52.48 27.52 70.528 10.24 122.56 5.12 135.488 32.64 35.84 52.48 81.536 52.48 137.408 0 196.672-119.68 240-233.6 252.608 17.92 15.36 34.56 46.72 34.56 94.72 0 68.48-0.64 123.52-0.64 140.16 0 13.44 8.96 29.44 35.2 24.32 204.864-67.136 351.424-259.136 351.424-485.056 0-282.752-229.248-512-512-512z"/> </symbol><symbol viewBox="0 0 1024 1024" id="icon-googleplus"><title>Google+ icon (uppercase stylized letter G with a plus after it)</title>  <path d="M636.793 519.456c0 183.783-123.252 314.055-308.79 314.055-177.643 0-321.511-143.869-321.511-321.511s143.869-321.51 321.511-321.51c86.847 0 159.22 31.581 215.363 84.215l-87.286 83.777c-23.685-22.808-65.354-49.564-128.077-49.564-109.656 0-199.135 90.795-199.135 203.082s89.479 203.082 199.135 203.082c127.2 0 175.011-91.673 182.467-138.604h-182.467v-110.533h303.527c3.071 16.228 5.263 32.458 5.263 53.511v0zM1017.079 465.945v92.111h-91.672v91.672h-92.111v-91.672h-91.673v-92.111h91.673v-91.673h92.111v91.673h91.672z"/> </symbol><symbol viewBox="0 0 1024 1024" id="icon-instagram"><title>Instagram icon (old style camera as seen from the front)</title>  <path class="path1" d="M778.24 512c0 147.046-119.245 266.24-266.24 266.24-147.046 0-266.24-119.194-266.24-266.24 0-17.51 1.741-34.611 5.018-51.2h-179.098v353.894c0 75.981 61.542 137.626 137.626 137.626h605.389c75.981 0 137.626-61.594 137.626-137.626v-353.894h-179.046c3.226 16.589 4.966 33.69 4.966 51.2zM814.694 71.68h-605.389c-76.032 0-137.626 61.645-137.626 137.626v149.094h222.925c48.179-68.096 127.59-112.64 217.395-112.64s169.216 44.544 217.395 112.64h222.925v-149.094c0-75.981-61.645-137.626-137.626-137.626zM882.022 241.664c0 13.568-11.059 24.576-24.576 24.576h-73.677c-13.517 0-24.576-11.059-24.576-24.576v-73.728c0-13.568 11.11-24.576 24.576-24.576h73.677c13.568 0 24.576 11.059 24.576 24.576v73.728zM675.84 512c0-90.522-73.37-163.84-163.84-163.84s-163.84 73.318-163.84 163.84 73.37 163.84 163.84 163.84 163.84-73.318 163.84-163.84z"/> </symbol><symbol viewBox="0 0 878 1024" id="icon-paypal"><title>paypal</title>  <path d="M868 369.143v0c7.429 34.286 5.714 73.714-2.286 116.571-37.143 188.571-162.286 253.714-322.857 253.714h-25.143c-19.429 0-35.429 14.286-38.857 33.714l-2.286 10.857-31.429 197.714-1.143 8.571c-4 19.429-20 33.714-39.429 33.714h-143.429c-16 0-26.286-13.143-24-29.143 10.286-64 20-128 30.286-192s20.571-127.429 30.857-191.429c1.714-13.714 10.857-21.143 24.571-21.143 22.857 0 45.714-0.571 74.857 0 41.143 0.571 88.571-1.714 134.857-12 61.714-13.714 117.714-38.857 164-82.286 41.714-38.857 69.714-86.857 88.571-140.571 8.571-25.143 15.429-50.286 20-76 1.143-6.857 2.857-5.714 6.857-2.857 31.429 23.429 49.143 54.857 56 92.571zM769.714 208c0 46.857-10.857 91.429-26.286 134.857-29.714 86.286-85.714 148-172.571 180-46.286 16.571-94.857 23.429-144 24-34.286 0.571-68.571 0-102.857 0-37.143 0-60.571 18.286-67.429 54.857-8 43.429-39.429 245.714-48.571 302.857-0.571 4-2.286 5.714-6.857 5.714h-168.571c-17.143 0-29.714-14.857-27.429-31.429l132.571-840.571c3.429-21.714 22.857-38.286 45.143-38.286h341.714c24.571 0 81.143 10.857 119.429 25.714 81.143 31.429 125.714 95.429 125.714 182.286z"/> </symbol><symbol viewBox="0 0 1024 1024" id="icon-pinterest"><title>Pinterest icon (stylized letter P)</title>  <path class="path1" d="M441.139 677.274c-26.88 140.954-59.699 276.122-156.979 346.726-30.003-213.094 44.083-373.094 78.49-542.976-58.675-98.816 7.066-297.574 130.867-248.576 152.32 60.262-131.891 367.258 58.88 405.606 199.219 40.038 280.525-345.6 157.030-470.989-178.483-181.146-519.578-4.198-477.594 255.027 10.189 63.386 75.674 82.637 26.163 170.086-114.227-25.293-148.326-115.405-143.923-235.52 7.066-196.557 176.64-334.182 346.726-353.229 215.142-24.115 417.024 78.95 444.826 281.293 31.386 228.352-97.024 475.699-327.117 457.882-62.31-4.762-88.474-35.635-137.37-65.331z"/> </symbol><symbol viewBox="0 0 1024 1024" id="icon-steam"><title>Steam icon (a steam piston)</title>  <path d="M903 349.636c0 64.064-51.924 115.988-115.988 115.988s-115.988-51.928-115.988-115.988 51.932-115.98 115.988-115.98c64.060 0 115.984 51.924 115.988 115.98zM1013.464 349.648c0 125.064-101.388 226.44-226.444 226.44-0.116 0-0.236-0.008-0.356-0.008l-226.584 147.776c0.292 4.096 0.492 8.224 0.492 12.4 0 94.564-76.656 171.22-171.216 171.22-83.584 0-153.132-59.908-168.164-139.108l-221.188-91.068v-199.32l291.696 117.664c27.7-19.272 61.34-30.604 97.648-30.604 7.816 0 15.492 0.572 23.020 1.584l148.204-217.368c0.212-124.892 101.5-226.068 226.44-226.068 125.056 0.004 226.452 101.4 226.452 226.46zM516.372 736.252c0-70.164-56.88-127.036-127.036-127.036-15.584 0-30.496 2.824-44.288 7.952l79.788 32.18c0.516 0.212 1.040 0.408 1.552 0.628l6.22 2.5-0.172 0.412c30.16 15.628 50.8 47.068 50.8 83.364 0 51.86-42.040 93.892-93.896 93.892-10.108 0-19.828-1.636-28.952-4.596l-0.044 0.104-2.696-1.112c-2.736-0.984-5.412-2.072-8.020-3.296l-75.272-30.988c20.304 43.148 64.148 73.036 114.992 73.036 70.16-0.008 127.024-56.88 127.024-127.040zM947.176 349.636c0-88.456-71.708-160.168-160.164-160.168-88.468 0-160.172 71.704-160.172 160.168s71.704 160.172 160.172 160.172c88.456 0 160.164-71.716 160.164-160.172z"/> </symbol><symbol viewBox="0 0 1024 1024" id="icon-tumblr"><title>tumblr</title>  <path d="M621.355 1024c-217.301 0-299.989-160.256-299.989-273.536v-334.592h-103.083v-132.224c154.88-56.021 192.512-196.096 200.96-276.011 0.597-5.461 4.907-7.637 7.381-7.637h150.059v260.864h204.843v155.008h-205.653v318.72c0.683 42.709 16 101.163 94.165 101.163h3.84c26.923-0.853 63.403-8.747 82.603-17.877l49.323 146.133c-18.603 27.136-102.4 58.624-177.323 59.904h-7.595l0.469 0.085z"/> </symbol><symbol viewBox="0 0 1024 1024" id="icon-twitter"><title>Twitter icon (flying bird)</title>  <path class="path1" d="M983.040 219.802c-34.714 15.411-71.936 25.754-111.053 30.464 39.936-23.91 70.605-61.798 84.992-106.906-37.325 22.118-78.694 38.246-122.675 46.899-35.277-37.581-85.504-61.030-141.107-61.030-106.752 0-193.28 86.528-193.28 193.229 0 15.155 1.69 29.901 5.018 44.032-160.614-8.038-303.053-84.992-398.336-201.933-16.691 28.518-26.266 61.747-26.266 97.178 0 67.072 34.15 126.208 86.016 160.87-31.693-1.024-61.491-9.677-87.552-24.166 0 0.819 0 1.587 0 2.406 0 93.645 66.662 171.725 155.034 189.542-16.179 4.403-33.28 6.758-50.944 6.758-12.442 0-24.525-1.178-36.352-3.43 24.576 76.8 96 132.659 180.531 134.195-66.15 51.866-149.453 82.739-240.026 82.739-15.616 0-30.976-0.922-46.080-2.714 85.504 54.835 187.085 86.835 296.294 86.835 355.482 0 549.888-294.502 549.888-549.939 0-8.346-0.154-16.691-0.563-24.986 37.786-27.238 70.502-61.286 96.461-100.045z"/> </symbol><symbol viewBox="0 0 1024 1024" id="icon-vimeo"><title>Vimeo icon (stylized letter &quot;V&quot;)</title>  <path d="M976.571 296c-4 90.286-67.429 214.286-189.714 372-126.857 164-233.143 246.286-321.143 246.286-54.286 0-100-50.286-137.143-150.286-25.143-91.429-50.286-183.429-75.429-275.429-27.429-100-57.714-149.714-89.714-149.714-6.857 0-30.857 14.286-72.571 43.429l-44-56c45.714-40.571 90.857-81.714 136-121.143 60.571-53.714 106.857-80.571 137.714-83.429 72.571-6.857 116.571 42.286 133.714 148 17.714 114.286 30.857 185.714 37.714 213.143 21.143 94.857 43.429 142.286 68.571 142.286 19.429 0 48.571-30.286 88-92 38.857-61.714 59.429-108.571 62.286-140.571 5.143-53.143-15.429-79.429-62.286-79.429-22.286 0-45.143 5.143-69.143 14.857 45.714-149.714 133.143-222.286 262.286-218.286 95.429 2.857 140.571 65.143 134.857 186.286z"/> </symbol><symbol viewBox="0 0 1024 1024" id="icon-wikipedia"><title>Wikipedia icon (a stylized letter &quot;W&quot;).</title>  <path d="M514.816 559.872c-39.872 82.24-94.4 193.664-121.472 243.84-26.24 45.76-48 39.68-65.28 1.28-59.84-141.44-182.784-389.376-240.64-528.384-10.688-25.6-18.752-42.048-26.368-48.512-7.68-6.4-23.552-10.24-47.744-11.52-8.96-1.088-13.312-3.2-13.312-6.784v-19.392l2.176-1.92c39.36-0.192 230.016 0 230.016 0l2.176 1.92v18.432c0 5.12-3.2 7.552-9.6 7.552l-24 1.28c-20.608 1.28-30.912 7.040-30.912 18.56 0 5.76 2.176 14.080 7.040 25.6 46.080 112.64 205.184 448 205.184 448l5.76 1.92 102.656-204.8-20.48-45.44-70.656-138.944s-13.568-27.84-18.24-37.12c-30.976-61.44-30.272-64.64-61.632-68.864-8.768-1.024-13.312-2.112-13.312-6.4v-19.84l2.56-1.92h182.784l4.8 1.6v19.2c0 4.48-3.2 6.4-9.6 6.4l-13.12 1.984c-33.728 2.56-28.16 16.256-5.76 60.544l67.328 138.496 74.88-149.248c12.48-27.2 9.92-34.048 4.736-40.32-3.008-3.584-12.992-9.344-34.56-10.24l-8.576-0.896c-2.176 0-4.16-0.64-6.144-2.176-1.92-1.28-2.88-3.2-2.88-5.44v-18.24l2.56-1.92c53.12-0.32 172.16 0 172.16 0l2.56 1.92v18.56c0 5.12-2.56 7.552-8.32 7.552-27.52 1.28-33.28 4.032-43.52 18.688-5.12 7.936-16 25.088-27.52 44.288l-97.984 181.952-2.816 5.76 118.912 243.2 7.232 2.048 187.264-444.48c6.528-17.92 5.504-30.72-2.816-38.080-8.32-7.296-14.72-11.648-36.48-12.544l-17.92-0.64c-2.56 0-4.48-0.64-6.4-1.92s-3.2-3.2-3.2-5.12v-18.56l2.56-1.92h211.2l1.92 1.92v18.56c0 5.12-3.2 7.68-8.96 7.68-27.52 1.28-48 7.68-61.44 17.92-13.44 10.88-23.68 26.24-31.36 45.44 0 0-172.16 394.24-231.040 525.44-22.4 42.88-44.8 39.040-64-1.28-24.32-49.92-75.52-161.28-112.64-243.2z"/> </symbol><symbol viewBox="0 0 1024 1024" id="icon-youtube"><title>YouTube icon (rounded rectangle with play arrow within)</title>  <path d="M512 138.043c-477.303 0-485.659 42.446-485.659 373.957s8.352 373.957 485.659 373.957 485.659-42.446 485.659-373.957-8.352-373.957-485.659-373.957zM667.654 528.222l-218.061 101.794c-19.086 8.839-34.724-1.068-34.724-22.146v-191.739c0-21.029 15.639-30.986 34.724-22.146l218.061 101.794c19.086 8.936 19.086 23.506 0 32.442z"/> </symbol></svg>