<!-- Generated by IcoMoon.io -->
<svg version="1.1" xmlns="http://www.w3.org/2000/svg" width="1024" height="1024" viewBox="0 0 1024 1024">
<title>zoom-out</title>
<path d="M904.8 822.144l-73.824 73.856-169.728-169.728 73.856-73.856 169.696 169.728z"></path>
<path d="M463.2 791.968c-186.176 0-337.632-151.456-337.632-337.568 0-186.176 151.424-337.632 337.632-337.632 186.112 0 337.536 151.456 337.536 337.632 0 186.112-151.424 337.568-337.536 337.568zM463.2 197.792c-141.504 0-256.608 115.104-256.608 256.608 0 141.44 115.104 256.544 256.608 256.544 141.44 0 256.544-115.104 256.544-256.544 0-141.536-115.072-256.608-256.544-256.608z"></path>
<path d="M332.672 428.288h261.088v52.224h-261.088v-52.224z"></path>
</svg>
