<svg xmlns="http://www.w3.org/2000/svg" width="32" height="32" viewBox="0 0 32 32"><path d="M30.934 28.029l-2.83 2.83-6.503-6.504 2.829-2.829 6.504 6.503z"/><path d="M14.012 26.873c-7.134 0-12.937-5.805-12.937-12.935C1.075 6.803 6.877 1 14.012 1c7.131 0 12.935 5.803 12.935 12.938-.001 7.13-5.804 12.935-12.935 12.935zm0-22.768c-5.422 0-9.832 4.41-9.832 9.833 0 5.42 4.41 9.83 9.832 9.83 5.421 0 9.83-4.409 9.83-9.83 0-5.423-4.409-9.833-9.83-9.833z"/><path d="M9.01 12.937h10.004v2.001H9.01v-2.001z"/></svg>