<svg xmlns="http://www.w3.org/2000/svg"><symbol viewBox="0 0 32 32" id="icon-arrow-left"><title>arrow-left</title><path d="M13.606 6.25l2.752 2.359-4.626 5.397H27v3.084H11.732l4.626 5.396-2.752 2.264-8.042-9.203 8.042-9.297z"/></symbol><symbol viewBox="0 0 32 32" id="icon-arrow-right"><title>arrow-right</title><path d="M18.396 24.75l-2.753-2.359 4.625-5.397H5V13.91h15.268l-4.625-5.396 2.753-2.263 8.04 9.202-8.04 9.297z"/></symbol><symbol viewBox="0 0 32 32" id="icon-close"><title>close</title><path d="M15.997 13.833L26.229 3.602l2.175 2.173-10.233 10.232 10.225 10.225-2.174 2.174-10.226-10.224-10.221 10.22-2.174-2.173 10.222-10.221L3.593 5.78l2.175-2.175 10.229 10.228z"/></symbol><symbol viewBox="0 0 32 32" id="icon-fullscreen-enter"><title>fullscreen-enter</title><path d="M1 28v-9h3v6h6v3H1zM1 4h9v3H4v6H1V4zm30 0v9h-3V7h-6V4h9zm0 24h-9v-3h6v-6h3v9z"/></symbol><symbol viewBox="0 0 32 32" id="icon-fullscreen-exit"><title>fullscreen-exit</title><path d="M10 19v9H7v-6H1v-3h9zm0-6H1v-3h6V4h3v9zm12 0V4h3v6h6v3h-9zm0 6h9v3h-6v6h-3v-9z"/></symbol><symbol viewBox="0 0 32 32" id="icon-share"><title>share</title><path d="M19.053 5.031v6.122C8.804 12.519 4.129 20.497 2.8 26.969c3.607-4.599 9.041-8.283 16.253-8.283v5.846L28.8 14.92l-9.747-9.889z"/></symbol><symbol viewBox="0 0 32 32" id="icon-zoom-in"><title>zoom-in</title><path d="M30.934 28.029l-2.83 2.83-6.503-6.504 2.829-2.829 6.504 6.503z"/><path d="M14.012 26.873c-7.134 0-12.937-5.805-12.937-12.935C1.075 6.803 6.877 1 14.012 1c7.131 0 12.935 5.803 12.935 12.938-.001 7.13-5.804 12.935-12.935 12.935zm0-22.768c-5.422 0-9.832 4.41-9.832 9.833 0 5.42 4.41 9.83 9.832 9.83 5.421 0 9.83-4.409 9.83-9.83 0-5.423-4.409-9.833-9.83-9.833z"/><path d="M9.01 12.937h10.004v2.001H9.01v-2.001z"/><path d="M13.012 18.94V8.936h2.001V18.94h-2.001z"/></symbol><symbol viewBox="0 0 32 32" id="icon-zoom-out"><title>zoom-out</title><path d="M30.934 28.029l-2.83 2.83-6.503-6.504 2.829-2.829 6.504 6.503z"/><path d="M14.012 26.873c-7.134 0-12.937-5.805-12.937-12.935C1.075 6.803 6.877 1 14.012 1c7.131 0 12.935 5.803 12.935 12.938-.001 7.13-5.804 12.935-12.935 12.935zm0-22.768c-5.422 0-9.832 4.41-9.832 9.833 0 5.42 4.41 9.83 9.832 9.83 5.421 0 9.83-4.409 9.83-9.83 0-5.423-4.409-9.833-9.83-9.833z"/><path d="M9.01 12.937h10.004v2.001H9.01v-2.001z"/></symbol></svg>