<!-- Generated by IcoMoon.io -->
<svg version="1.1" xmlns="http://www.w3.org/2000/svg" width="896" height="1024" viewBox="0 0 896 1024">
<title>gear</title>
<path d="M896 561.28v-102.4l-124.16-40.96-28.8-69.76 56.32-117.76-72.32-72.32-115.84 58.24-69.76-28.8-44.16-122.88h-102.4l-40.32 124.16-71.040 28.8-117.76-56.32-72.32 72.32 58.24 115.84-28.8 69.76-122.88 43.52v101.76l124.16 40.96 28.8 69.76-56.32 117.76 72.32 72.32 115.84-58.24 69.76 28.8 44.16 122.88h101.76l40.32-124.16 71.040-28.8 117.76 56.32 72.32-72.32-58.88-115.84 30.080-69.76 122.88-44.16v1.28zM448 704c-106.24 0-192-85.76-192-192s85.76-192 192-192c106.24 0 192 85.76 192 192s-85.76 192-192 192v0z"></path>
</svg>
