<!-- Generated by IcoMoon.io -->
<svg version="1.1" xmlns="http://www.w3.org/2000/svg" width="1024" height="1024" viewBox="0 0 1024 1024">
<title>info</title>
<path d="M512 20.48c-271.514 0-491.571 220.058-491.571 491.52 0 271.514 220.058 491.571 491.571 491.571 271.411 0 491.52-220.058 491.52-491.571 0-271.462-220.109-491.52-491.52-491.52zM557.875 197.939c47.923 0 62.003 27.802 62.003 59.597 0 39.68-31.744 76.39-85.965 76.39-45.363 0-66.97-22.784-65.638-60.518 0-31.795 26.573-75.469 89.6-75.469zM435.098 806.4c-32.768 0-56.678-19.917-33.792-107.213l37.53-154.88c6.502-24.781 7.578-34.714 0-34.714-9.779 0-52.326 17.101-77.414 33.997l-16.333-26.778c79.616-66.509 171.162-105.523 210.33-105.523 32.768 0 38.195 38.707 21.862 98.304l-43.008 162.816c-7.629 28.774-4.352 38.707 3.277 38.707 9.83 0 41.984-11.878 73.626-36.813l18.534 24.883c-77.466 77.414-161.894 107.213-194.611 107.213z"></path>
</svg>
