<svg viewBox="0 0 1024 1024">
	<title>Throbber icon (two arrows chasing each others' tails)</title>
	<path class="path1" d="M540.076 883.17v121.822l-227.826-196.922 227.826-196.924v146.946c122.704-14.364 217.96-118.54 217.96-245.086 0-41.608-10.412-80.76-28.594-115.16l90.826-90.812c39.352 58.974 62.366 129.764 62.366 205.972 0 195.428-150.948 355.292-342.558 370.164zM481.542 268.014c-122.41 14.63-217.374 118.646-217.374 244.992 0 41.328 10.292 80.226 28.246 114.48l-90.986 90.986c-39.152-58.87-62.060-129.458-62.060-205.466 0-195.308 150.736-355.092 342.172-370.15v-121.85l227.826 196.936-227.826 196.936v-146.864z"></path>
</svg>
