<!-- Generated by IcoMoon.io -->
<svg version="1.1" xmlns="http://www.w3.org/2000/svg" width="32" height="32" viewBox="0 0 32 32">
<title>hamburger</title>
<path d="M29.504 12h-27.004c-1.38 0-2.5 1.12-2.5 2.5v1c0 1.378 1.12 2.5 2.5 2.5h27.004c1.378 0 2.5-1.122 2.5-2.5v-1c0-1.38-1.122-2.5-2.5-2.5zM29.504 0h-27.004c-1.38 0-2.5 1.12-2.5 2.5v1c0 1.38 1.12 2.5 2.5 2.5h27.004c1.378 0 2.5-1.12 2.5-2.5v-1c0-1.38-1.122-2.5-2.5-2.5zM29.504 24h-27.004c-1.38 0-2.5 1.122-2.5 2.5v1c0 1.378 1.12 2.5 2.5 2.5h27.004c1.378 0 2.5-1.122 2.5-2.5v-1c0-1.378-1.122-2.5-2.5-2.5z"></path>
</svg>
