<!-- Info icon stolen from the Entypo set on Icomoon -->
<svg viewBox="0 0 1024 1024">
	<title>Information icon (lowercase letter i within a circle)</title>
	<path class="path1" d="M505.702 41.011c-260.096 3.482-468.173 217.19-464.691 477.338 3.482 259.994 217.19 468.122 477.286 464.64s468.173-217.19 464.691-477.338c-3.43-260.045-217.19-468.122-477.286-464.64zM557.926 197.99c47.872 0 62.003 27.75 62.003 59.546 0 39.68-31.795 76.39-86.016 76.39-45.363 0-66.918-22.835-65.638-60.518 0-31.795 26.624-75.418 89.651-75.418zM435.149 806.4c-32.717 0-56.678-19.866-33.792-107.213l37.53-154.829c6.502-24.832 7.578-34.765 0-34.765-9.779 0-52.275 17.152-77.414 34.048l-16.333-26.778c79.616-66.458 171.162-105.472 210.381-105.472 32.717 0 38.144 38.707 21.811 98.253l-43.008 162.816c-7.578 28.774-4.301 38.707 3.277 38.707 9.779 0 41.984-11.878 73.626-36.762l18.483 24.832c-77.363 77.363-161.792 107.162-194.56 107.162z"></path>
</svg>
