<!-- Generated by IcoMoon.io -->
<svg version="1.1" xmlns="http://www.w3.org/2000/svg" width="32" height="32" viewBox="0 0 32 32">
<title>dashboard</title>
<path d="M10.33 8.188c1.984-0.786 4.134-1.128 6.264-1.070 2.118 0.046 4.218 0.512 6.14 1.398 2.072 0.95 3.942 2.336 5.426 4.066 1.802 2.11 3.068 4.684 3.566 7.428 0.18 0.962 0.26 1.944 0.274 2.928-0.070 0.196-0.066 0.404-0.14 0.602-0.266 0.77-1.038 1.372-1.87 1.344-2.974-0.016-5.952 0.012-8.918-0.016 2.062-2.66 4.158-5.294 6.228-7.954 0.514-0.696 0.726-1.592 0.57-2.438-0.15-0.926-0.796-1.778-1.676-2.124-1.136-0.442-2.516-0.194-3.4 0.644-2.402 2.358-4.792 4.712-7.198 7.068-0.492 0.088-0.992 0.188-1.458 0.39-1.704 0.754-2.958 2.524-2.938 4.406-2.766 0.028-5.538 0-8.304 0.008-0.424-0.008-0.864 0.052-1.27-0.108-0.532-0.202-0.978-0.642-1.18-1.178-0.086-0.208-0.078-0.442-0.16-0.652 0.016-1.91 0.342-3.82 1.020-5.604 0.726-1.918 1.83-3.702 3.226-5.206 1.612-1.716 3.61-3.066 5.798-3.932zM14.864 12.964c0.852-0.004 1.708-0.004 2.57 0 0.032-1.328-0.008-2.668 0.020-4-0.868-0.034-1.73 0-2.598-0.012-0.012 1.334-0.012 2.676 0.008 4.012zM8.52 11.622c-0.566 0.592-1.186 1.146-1.754 1.732-0.016 0.088 0.090 0.126 0.13 0.186 0.892 0.89 1.78 1.78 2.668 2.672 0.598-0.586 1.194-1.18 1.794-1.754-0.026-0.114-0.124-0.172-0.2-0.246-0.85-0.858-1.708-1.71-2.56-2.568-0.018-0.008-0.058-0.022-0.078-0.022zM4.376 18.098c-0.102 0.848-0.226 1.692-0.32 2.542 1.324 0.164 2.64 0.36 3.964 0.514 0.122-0.846 0.22-1.698 0.378-2.53-1.342-0.17-2.686-0.358-4.022-0.526z"></path>
<path d="M22.81 15.886c0.406-0.36 1.090-0.476 1.534-0.106 0.31 0.254 0.372 0.718 0.246 1.086-0.074 0.254-0.262 0.446-0.422 0.644-1.85 2.396-3.754 4.752-5.612 7.154 0.254 1.344-0.904 2.736-2.272 2.768-1.356 0.122-2.61-1.090-2.586-2.442-0.060-1.296 1.090-2.476 2.38-2.49 2.266-2.172 4.482-4.416 6.732-6.614z"></path>
</svg>
