<!-- Generated by IcoMoon.io -->
<svg version="1.1" xmlns="http://www.w3.org/2000/svg" width="1024" height="1024" viewBox="0 0 1024 1024">
<title>file</title>
<path d="M855.41 469.923h-381.399c-21.054 0-38.292-17.162-38.292-38.14v-381.399c0-20.978-17.162-38.14-38.14-38.14h-228.84c-20.978 0-38.14 17.162-38.14 38.14v917.568c0 20.978 17.162 38.14 38.14 38.14h686.67c20.978 0 38.14-17.162 38.14-38.14v-459.891c0-20.978-17.162-38.14-38.14-38.14zM550.292 393.643h305.12c20.978 0 25.936-12.128 11.136-27.004l-327.47-327.393c-14.874-14.874-26.926-9.84-26.926 11.136v305.12c0 20.978 17.162 38.14 38.14 38.14z"></path>
</svg>
