<!-- Generated by IcoMoon.io -->
<svg version="1.1" xmlns="http://www.w3.org/2000/svg" width="32" height="32" viewBox="0 0 32 32">
<title>chevron-disc-up</title>
<path d="M16.004 2c-7.734 0-14.004 6.268-14.004 14s6.27 14 14.004 14 14-6.268 14-14-6.266-14-14-14zM24.928 18.74l-1.958 1.958c-0.38 0.38-1.032 0.38-1.414 0l-4.844-4.838c-0.392-0.388-1.030-0.388-1.416 0l-4.846 4.834c-0.388 0.386-1.026 0.386-1.414 0l-1.954-1.952c-0.388-0.388-0.388-1.028 0-1.414l8.212-8.212c0.386-0.388 1.030-0.388 1.416 0l8.218 8.21c0.38 0.384 0.38 1.026 0 1.414z"></path>
</svg>
