<!-- Generated by IcoMoon.io -->
<svg version="1.1" xmlns="http://www.w3.org/2000/svg" width="32" height="32" viewBox="0 0 32 32">
<title>chevron-disc-right</title>
<path d="M16.004 2c-7.736 0-14.004 6.27-14.004 14 0 7.734 6.268 14 14.004 14 7.73 0 14-6.266 14-14 0-7.73-6.27-14-14-14zM22.886 16.714l-8.212 8.208c-0.388 0.382-1.028 0.382-1.416 0l-1.956-1.958c-0.388-0.386-0.388-1.036 0-1.414l4.846-4.842c0.39-0.39 0.39-1.028 0-1.416l-4.844-4.842c-0.388-0.388-0.388-1.026 0-1.414l1.954-1.954c0.388-0.388 1.028-0.388 1.416 0l8.212 8.216c0.382 0.388 0.382 1.030 0 1.416z"></path>
</svg>
