<!-- Generated by IcoMoon.io -->
<svg version="1.1" xmlns="http://www.w3.org/2000/svg" width="32" height="32" viewBox="0 0 32 32">
<title>warning</title>
<path d="M29.32 24.632l-10.632-21.266c-1.476-2.952-3.892-2.952-5.37 0l-10.634 21.266c-1.476 2.954 0.016 5.368 3.316 5.368h20.004c3.3 0 4.792-2.414 3.316-5.368zM14 8h4.004v10h-4.004v-10zM18.504 25.23c0 0.688-0.562 1.25-1.25 1.25h-2.5c-0.69 0-1.252-0.562-1.252-1.25v-2.478c0-0.688 0.562-1.25 1.252-1.25h2.5c0.688 0 1.25 0.562 1.25 1.25v2.478z"></path>
</svg>
