<svg xmlns="http://www.w3.org/2000/svg"><symbol viewBox="0 0 1024 1024" id="icon-facebook"><title>facebook</title>  <path d="M1023.919 511.962c0-282.749-229.21-511.962-511.957-511.962-282.749 0-511.962 229.212-511.962 511.962 0 255.535 187.217 467.332 431.966 505.741v-357.751h-129.989v-147.989h129.989v-112.792c0-128.31 76.433-199.185 193.374-199.185 56.013 0 114.603 9.999 114.603 9.999v125.99h-64.555c-63.599 0-83.435 39.464-83.435 79.951v96.037h141.99l-22.699 147.989h-119.292v357.751c244.753-38.409 431.966-250.206 431.966-505.741z"/> </symbol><symbol viewBox="0 0 1024 1024" id="icon-github"><title>github</title>  <path d="M512 0c-282.88 0-512 229.248-512 512 0 226.24 146.688 418.112 350.080 485.76 25.6 4.8 35.008-11.008 35.008-24.64 0-12.16-0.448-44.352-0.64-87.040-142.464 30.912-172.48-68.672-172.48-68.672-23.296-59.136-56.96-74.88-56.96-74.88-46.4-31.744 3.584-31.104 3.584-31.104 51.392 3.584 78.4 52.736 78.4 52.736 45.696 78.272 119.872 55.68 149.12 42.56 4.608-33.088 17.792-55.68 32.448-68.48-113.728-12.8-233.216-56.832-233.216-252.992 0-55.872 19.84-101.568 52.672-137.408-5.76-12.928-23.040-64.96 4.48-135.488 0 0 42.88-13.76 140.8 52.48 40.96-11.392 84.48-17.024 128-17.28 43.52 0.256 87.040 5.888 128 17.28 97.28-66.24 140.16-52.48 140.16-52.48 27.52 70.528 10.24 122.56 5.12 135.488 32.64 35.84 52.48 81.536 52.48 137.408 0 196.672-119.68 240-233.6 252.608 17.92 15.36 34.56 46.72 34.56 94.72 0 68.48-0.64 123.52-0.64 140.16 0 13.44 8.96 29.44 35.2 24.32 204.864-67.136 351.424-259.136 351.424-485.056 0-282.752-229.248-512-512-512z"/> </symbol><symbol viewBox="0 0 1024 1024" id="icon-gitlab"><title>gitlab</title>  <path d="M1005.014 586.889c-0.018-0.299-0.011-0.598-0.034-0.895-0.006-0.085-0.022-0.17-0.028-0.253-0.229-2.851-0.769-5.707-1.669-8.516l-164.496-506.373c-0.006-0.014-0.011-0.026-0.018-0.040l-0.043-0.136c-3.313-9.896-14.027-15.233-23.924-11.918-5.624 1.884-10.038 6.296-11.92 11.918l-109.306 336.532h-363.060l-109.463-336.532c-3.289-9.89-13.972-15.24-23.861-11.953-5.647 1.878-10.077 6.308-11.954 11.953l-164.468 506.49c-5.034 15.483 0.459 32.447 13.613 42.038l477.629 347.048 477.598-347.048c10.454-7.595 16.050-19.848 15.404-32.315z"/> </symbol><symbol viewBox="0 0 1024 1024" id="icon-instagram"><title>instagram</title>  <path d="M512 0c-139.093 0-156.459 0.64-211.072 3.072-54.528 2.56-91.648 11.136-124.288 23.808-33.664 13.056-62.251 30.592-90.709 59.051s-46.037 57.003-59.051 90.709c-12.672 32.64-21.291 69.76-23.808 124.288-2.56 54.613-3.072 71.979-3.072 211.072s0.64 156.459 3.072 211.072c2.56 54.485 11.136 91.648 23.808 124.288 13.056 33.621 30.592 62.251 59.051 90.709 28.459 28.416 57.003 46.037 90.709 59.051 32.683 12.629 69.803 21.291 124.288 23.808 54.613 2.56 71.979 3.072 211.072 3.072s156.459-0.64 211.072-3.072c54.485-2.56 91.648-11.179 124.288-23.808 33.621-13.056 62.251-30.635 90.709-59.051 28.416-28.459 46.037-56.96 59.051-90.709 12.629-32.64 21.291-69.803 23.808-124.288 2.56-54.613 3.072-71.979 3.072-211.072s-0.64-156.459-3.072-211.072c-2.56-54.485-11.179-91.691-23.808-124.288-13.056-33.664-30.635-62.251-59.051-90.709-28.459-28.459-56.96-46.037-90.709-59.051-32.64-12.672-69.803-21.291-124.288-23.808-54.613-2.56-71.979-3.072-211.072-3.072zM512 92.16c136.661 0 152.96 0.683 206.933 3.029 49.92 2.347 77.013 10.624 95.019 17.707 23.979 9.259 40.96 20.352 58.965 38.229 17.877 17.92 28.971 34.944 38.229 58.923 6.997 18.005 15.36 45.099 17.621 95.019 2.432 54.016 2.987 70.229 2.987 206.933s-0.64 152.96-3.157 206.933c-2.603 49.92-10.923 77.013-17.963 95.019-9.557 23.979-20.437 40.96-38.357 58.965-17.877 17.877-35.157 28.971-58.88 38.229-17.92 6.997-45.44 15.36-95.36 17.621-54.357 2.432-70.357 2.987-207.317 2.987-137.003 0-153.003-0.64-207.317-3.157-49.963-2.603-77.483-10.923-95.403-17.963-24.277-9.557-40.96-20.437-58.837-38.357-17.963-17.877-29.44-35.157-38.4-58.88-7.040-17.92-15.317-45.44-17.92-95.36-1.92-53.76-2.603-70.357-2.603-206.677 0-136.363 0.683-153.003 2.603-207.403 2.603-49.92 10.88-77.397 17.92-95.317 8.96-24.32 20.437-40.96 38.4-58.923 17.877-17.877 34.56-29.397 58.837-38.315 17.92-7.083 44.843-15.403 94.763-17.963 54.4-1.92 70.4-2.56 207.317-2.56l1.92 1.28zM512 249.088c-145.28 0-262.912 117.76-262.912 262.912 0 145.28 117.76 262.912 262.912 262.912 145.28 0 262.912-117.76 262.912-262.912 0-145.28-117.76-262.912-262.912-262.912zM512 682.667c-94.293 0-170.667-76.373-170.667-170.667s76.373-170.667 170.667-170.667 170.667 76.373 170.667 170.667-76.373 170.667-170.667 170.667zM846.763 238.72c0 33.92-27.563 61.44-61.44 61.44-33.92 0-61.44-27.563-61.44-61.44s27.563-61.397 61.44-61.397c33.835-0.043 61.44 27.52 61.44 61.397z"/> </symbol><symbol viewBox="0 0 878 1024" id="icon-paypal"><title>paypal</title>  <path d="M868 369.143v0c7.429 34.286 5.714 73.714-2.286 116.571-37.143 188.571-162.286 253.714-322.857 253.714h-25.143c-19.429 0-35.429 14.286-38.857 33.714l-2.286 10.857-31.429 197.714-1.143 8.571c-4 19.429-20 33.714-39.429 33.714h-143.429c-16 0-26.286-13.143-24-29.143 10.286-64 20-128 30.286-192s20.571-127.429 30.857-191.429c1.714-13.714 10.857-21.143 24.571-21.143 22.857 0 45.714-0.571 74.857 0 41.143 0.571 88.571-1.714 134.857-12 61.714-13.714 117.714-38.857 164-82.286 41.714-38.857 69.714-86.857 88.571-140.571 8.571-25.143 15.429-50.286 20-76 1.143-6.857 2.857-5.714 6.857-2.857 31.429 23.429 49.143 54.857 56 92.571zM769.714 208c0 46.857-10.857 91.429-26.286 134.857-29.714 86.286-85.714 148-172.571 180-46.286 16.571-94.857 23.429-144 24-34.286 0.571-68.571 0-102.857 0-37.143 0-60.571 18.286-67.429 54.857-8 43.429-39.429 245.714-48.571 302.857-0.571 4-2.286 5.714-6.857 5.714h-168.571c-17.143 0-29.714-14.857-27.429-31.429l132.571-840.571c3.429-21.714 22.857-38.286 45.143-38.286h341.714c24.571 0 81.143 10.857 119.429 25.714 81.143 31.429 125.714 95.429 125.714 182.286z"/> </symbol><symbol viewBox="0 0 1024 1024" id="icon-pinterest"><title>pinterest</title>  <path d="M512.725 0c-282.496 0-511.488 228.992-511.488 511.445 0 216.704 134.741 401.792 325.035 476.245-4.48-40.491-8.491-102.528 1.749-146.731 9.344-39.979 59.989-254.165 59.989-254.165s-15.317-30.72-15.317-75.989c0-70.955 41.259-124.203 92.501-124.203 43.691 0 64.768 32.811 64.768 72.021 0 43.904-27.861 109.525-42.325 170.325-12.16 50.901 25.6 92.373 75.733 92.373 90.795 0 160.768-95.787 160.768-234.112 0-122.069-88.021-207.744-213.675-207.744-145.493 0-230.784 109.312-230.784 221.824 0 44.075 16.811 91.435 37.931 116.949 4.224 5.12 4.779 9.6 3.627 14.72-3.84 16-12.501 51.157-14.251 58.155-2.261 9.6-7.339 11.563-17.109 7.040-63.787-29.44-103.808-122.795-103.808-198.229 0-161.109 117.248-309.419 337.92-309.419 177.408 0 315.392 126.592 315.392 295.381 0 176.427-111.232 318.379-265.941 318.379-51.797 0-100.437-26.837-117.675-58.837l-31.957 121.515c-11.477 44.587-42.837 100.352-63.915 134.229 47.915 14.72 98.389 22.827 151.467 22.827 281.899 0 511.36-228.907 511.36-511.445 0-282.581-229.461-511.445-511.36-511.445l1.365-1.109z"/> </symbol><symbol viewBox="0 0 1024 1024" id="icon-steam"><title>steam</title>  <path d="M903 349.636c0 64.064-51.924 115.988-115.988 115.988s-115.988-51.928-115.988-115.988 51.932-115.98 115.988-115.98c64.060 0 115.984 51.924 115.988 115.98zM1013.464 349.648c0 125.064-101.388 226.44-226.444 226.44-0.116 0-0.236-0.008-0.356-0.008l-226.584 147.776c0.292 4.096 0.492 8.224 0.492 12.4 0 94.564-76.656 171.22-171.216 171.22-83.584 0-153.132-59.908-168.164-139.108l-221.188-91.068v-199.32l291.696 117.664c27.7-19.272 61.34-30.604 97.648-30.604 7.816 0 15.492 0.572 23.020 1.584l148.204-217.368c0.212-124.892 101.5-226.068 226.44-226.068 125.056 0.004 226.452 101.4 226.452 226.46zM516.372 736.252c0-70.164-56.88-127.036-127.036-127.036-15.584 0-30.496 2.824-44.288 7.952l79.788 32.18c0.516 0.212 1.040 0.408 1.552 0.628l6.22 2.5-0.172 0.412c30.16 15.628 50.8 47.068 50.8 83.364 0 51.86-42.040 93.892-93.896 93.892-10.108 0-19.828-1.636-28.952-4.596l-0.044 0.104-2.696-1.112c-2.736-0.984-5.412-2.072-8.020-3.296l-75.272-30.988c20.304 43.148 64.148 73.036 114.992 73.036 70.16-0.008 127.024-56.88 127.024-127.040zM947.176 349.636c0-88.456-71.708-160.168-160.164-160.168-88.468 0-160.172 71.704-160.172 160.168s71.704 160.172 160.172 160.172c88.456 0 160.164-71.716 160.164-160.172z"/> </symbol><symbol viewBox="0 0 1024 1024" id="icon-tumblr"><title>tumblr</title>  <path d="M621.355 1024c-217.301 0-299.989-160.256-299.989-273.536v-334.592h-103.083v-132.224c154.88-56.021 192.512-196.096 200.96-276.011 0.597-5.461 4.907-7.637 7.381-7.637h150.059v260.864h204.843v155.008h-205.653v318.72c0.683 42.709 16 101.163 94.165 101.163h3.84c26.923-0.853 63.403-8.747 82.603-17.877l49.323 146.133c-18.603 27.136-102.4 58.624-177.323 59.904h-7.595l0.469 0.085z"/> </symbol><symbol viewBox="0 0 1024 1024" id="icon-twitter"><title>twitter</title>  <path d="M1022.037 194.944c-37.76 16.597-78.080 27.904-120.533 33.067 43.264-26.069 76.544-67.157 92.288-116.181-40.576 23.68-85.547 40.917-133.419 50.517-38.229-40.917-92.715-66.517-153.216-66.517-115.925 0-209.92 93.995-209.92 209.792 0 16.64 1.92 32.64 5.419 47.957-174.507-8.235-329.173-92.032-432.683-218.709-18.219 30.805-28.416 66.603-28.416 105.6 0 72.96 37.12 137.088 93.355 174.763-34.432-1.109-66.816-10.581-95.061-26.283v2.603c0 101.76 72.235 186.624 168.363 205.952-17.621 4.736-36.224 7.296-55.296 7.296-13.397 0-26.24-1.28-39.083-3.669 26.923 83.328 104.32 144.085 196.437 145.792-71.68 56.277-162.517 89.813-260.352 89.813-16.64 0-33.237-0.981-49.92-2.859 93.397 59.477 203.435 94.251 322.432 94.251 386.304 0 597.291-319.829 597.291-596.736 0-8.917 0-17.92-0.64-26.88 41.003-29.397 76.8-66.56 104.96-108.715l-2.005-0.853z"/> </symbol><symbol viewBox="0 0 1029 1024" id="icon-vimeo"><title>vimeo</title>  <path d="M976.571 296c-4 90.286-67.429 214.286-189.714 372-126.857 164-233.143 246.286-321.143 246.286-54.286 0-100-50.286-137.143-150.286-25.143-91.429-50.286-183.429-75.429-275.429-27.429-100-57.714-149.714-89.714-149.714-6.857 0-30.857 14.286-72.571 43.429l-44-56c45.714-40.571 90.857-81.714 136-121.143 60.571-53.714 106.857-80.571 137.714-83.429 72.571-6.857 116.571 42.286 133.714 148 17.714 114.286 30.857 185.714 37.714 213.143 21.143 94.857 43.429 142.286 68.571 142.286 19.429 0 48.571-30.286 88-92 38.857-61.714 59.429-108.571 62.286-140.571 5.143-53.143-15.429-79.429-62.286-79.429-22.286 0-45.143 5.143-69.143 14.857 45.714-149.714 133.143-222.286 262.286-218.286 95.429 2.857 140.571 65.143 134.857 186.286z"/> </symbol><symbol viewBox="0 0 1024 1024" id="icon-wikipedia"><title>wikipedia</title>  <path d="M514.816 559.872c-39.872 82.24-94.4 193.664-121.472 243.84-26.24 45.76-48 39.68-65.28 1.28-59.84-141.44-182.784-389.376-240.64-528.384-10.688-25.6-18.752-42.048-26.368-48.512-7.68-6.4-23.552-10.24-47.744-11.52-8.96-1.088-13.312-3.2-13.312-6.784v-19.392l2.176-1.92c39.36-0.192 230.016 0 230.016 0l2.176 1.92v18.432c0 5.12-3.2 7.552-9.6 7.552l-24 1.28c-20.608 1.28-30.912 7.040-30.912 18.56 0 5.76 2.176 14.080 7.040 25.6 46.080 112.64 205.184 448 205.184 448l5.76 1.92 102.656-204.8-20.48-45.44-70.656-138.944s-13.568-27.84-18.24-37.12c-30.976-61.44-30.272-64.64-61.632-68.864-8.768-1.024-13.312-2.112-13.312-6.4v-19.84l2.56-1.92h182.784l4.8 1.6v19.2c0 4.48-3.2 6.4-9.6 6.4l-13.12 1.984c-33.728 2.56-28.16 16.256-5.76 60.544l67.328 138.496 74.88-149.248c12.48-27.2 9.92-34.048 4.736-40.32-3.008-3.584-12.992-9.344-34.56-10.24l-8.576-0.896c-2.176 0-4.16-0.64-6.144-2.176-1.92-1.28-2.88-3.2-2.88-5.44v-18.24l2.56-1.92c53.12-0.32 172.16 0 172.16 0l2.56 1.92v18.56c0 5.12-2.56 7.552-8.32 7.552-27.52 1.28-33.28 4.032-43.52 18.688-5.12 7.936-16 25.088-27.52 44.288l-97.984 181.952-2.816 5.76 118.912 243.2 7.232 2.048 187.264-444.48c6.528-17.92 5.504-30.72-2.816-38.080-8.32-7.296-14.72-11.648-36.48-12.544l-17.92-0.64c-2.56 0-4.48-0.64-6.4-1.92s-3.2-3.2-3.2-5.12v-18.56l2.56-1.92h211.2l1.92 1.92v18.56c0 5.12-3.2 7.68-8.96 7.68-27.52 1.28-48 7.68-61.44 17.92-13.44 10.88-23.68 26.24-31.36 45.44 0 0-172.16 394.24-231.040 525.44-22.4 42.88-44.8 39.040-64-1.28-24.32-49.92-75.52-161.28-112.64-243.2z"/> </symbol><symbol viewBox="0 0 1024 1024" id="icon-youtube"><title>youtube</title>  <path d="M512 138.043c-477.303 0-485.659 42.446-485.659 373.957s8.352 373.957 485.659 373.957 485.659-42.446 485.659-373.957-8.352-373.957-485.659-373.957zM667.654 528.222l-218.061 101.794c-19.086 8.839-34.724-1.068-34.724-22.146v-191.739c0-21.029 15.639-30.986 34.724-22.146l218.061 101.794c19.086 8.936 19.086 23.506 0 32.442z"/> </symbol></svg>