<svg xmlns="http://www.w3.org/2000/svg"><symbol viewBox="0 0 24 24" id="icon-add"><title>Add icon (a plus symbol)</title>  <path d="M18.984 12.984h-6v6h-1.969v-6h-6v-1.969h6v-6h1.969v6h6v1.969z"/> </symbol><symbol viewBox="0 0 1024 1024" id="icon-arrow-down"><title>Down icon (arrow pointing down)</title>  <path class="path1" d="M513.002 810.8l497.1-497.092-90.51-90.51-406.59 406.592-408.594-408.592-90.51 90.51z"/> </symbol><symbol viewBox="0 0 1024 1024" id="icon-arrow-left"><title>Left icon (arrow pointing left)</title>  <path class="path1" d="M716.292 1014.102l90.51-90.51-408.59-408.594 406.59-406.59-90.51-90.51-497.096 497.1z"/> </symbol><symbol viewBox="0 0 1024 1024" id="icon-arrow-right"><title>Right icon (arrow pointing right)</title>  <path class="path1" d="M806.804 514.998l-497.098-497.1-90.51 90.51 406.592 406.59-408.592 408.594 90.51 90.51z"/> </symbol><symbol viewBox="0 0 1024 1024" id="icon-arrow-up"><title>Up icon (arrow pointing up)</title>  <path class="path1" d="M13.898 720.292l90.51 90.51 408.594-408.59 406.59 406.59 90.51-90.51-497.1-497.094z"/> </symbol><symbol viewBox="0 0 1024 1024" id="icon-bookmark_outline"><title>Bookmark icon (A vertical rectangle with a triangular indentation on the bottom edge)</title>  <path d="M726 768v-554h-428v554l214-94zM726 128q34 0 59 26t25 60v682l-298-128-298 128v-682q0-34 25-60t59-26h428z"/> </symbol><symbol viewBox="0 0 1024 1024" id="icon-bookmark"><title>Bookmark icon (A vertical rectangle with a triangular indentation on the bottom edge)</title>  <path d="M726 128q34 0 59 26t25 60v682l-298-128-298 128v-682q0-34 25-60t59-26h428z"/> </symbol><symbol viewBox="0 0 1024 1024" id="icon-calendar"><title>Calendar icon (calendar card attached to rings)</title>  <path class="path1" d="M870.4 153.6h-46.080v102.4h-163.84v-102.4h-296.96v102.4h-163.84v-102.4h-46.080c-56.32 0-102.4 46.080-102.4 102.4v614.4c0 56.32 46.080 102.4 102.4 102.4h716.8c56.32 0 102.4-46.080 102.4-102.4v-614.4c0-56.32-46.080-102.4-102.4-102.4zM870.4 870.4h-716.8v-409.6h716.8v409.6zM317.44 51.2h-71.68v174.080h71.68v-174.080zM778.24 51.2h-71.68v174.080h71.68v-174.080z"/> </symbol><symbol viewBox="0 0 1024 1024" id="icon-close"><title>Close icon (Two crossed bars resembling a letter &quot;x&quot;)</title>  <path d="M810 274l-238 238 238 238-60 60-238-238-238 238-60-60 238-238-238-238 60-60 238 238 238-238z"/> </symbol><symbol viewBox="0 0 1024 1024" id="icon-download"><title>Download icon (arrow pointing down)</title>  <path d="M214 768h596v86h-596v-86zM810 384l-298 298-298-298h170v-256h256v256h170z"/> </symbol><symbol viewBox="0 0 1024 1024" id="icon-error"><title>Error icon (exclamation mark within an octogon)</title>  <path d="M554 554v-256h-84v256h84zM512 738q22 0 39-17t17-39-17-38-39-16-39 16-17 38 17 39 39 17zM672 128l224 224v320l-224 224h-320l-224-224v-320l224-224h320z"/> </symbol><symbol viewBox="0 0 896 1024" id="icon-gear"><title>Gear icon (outline of a mechanical gear)</title>  <path class="path1" d="M447.938 350c-89.407 0-161.938 72.531-161.938 162 0 89.375 72.531 162.062 161.938 162.062 89.438 0 161.438-72.688 161.438-162.062-0.001-89.469-72.001-162-161.438-162zM772.625 605.062l-29.188 70.312 58.937 115.75-72.188 72.188-118.436-55.937-70.312 28.875-35.688 109.25-4.562 14.5h-102.032l-44.156-123.312-70.312-29-115.904 58.688-72.156-72.125 55.875-118.5-28.969-70.25-123.534-40.313v-101.969l123.406-44.219 28.969-70.188-51.906-102.469-6.844-13.438 72.062-72.062 118.594 55.844 70.219-29.031 35.656-109.188 4.594-14.468h102l44.188 123.469 70.125 29.031 116.062-58.813 72.125 72.062-55.875 118.406 28.875 70.345 123.75 40.25v101.938l-123.375 44.374z"/> </symbol><symbol viewBox="0 0 1024 1024" id="icon-help"><title>Help icon (question mark within a circle)</title>  <path d="M642 480q40-40 40-96 0-70-50-120t-120-50-120 50-50 120h84q0-34 26-60t60-26 60 26 26 60-26 60l-52 54q-50 54-50 120v22h84q0-66 50-120zM554 810v-84h-84v84h84zM512 86q176 0 301 125t125 301-125 301-301 125-301-125-125-301 125-301 301-125z"/> </symbol><symbol viewBox="0 0 1024 1024" id="icon-info"><title>Information icon (lowercase letter i within a circle)</title>  <path class="path1" d="M505.702 41.011c-260.096 3.482-468.173 217.19-464.691 477.338 3.482 259.994 217.19 468.122 477.286 464.64s468.173-217.19 464.691-477.338c-3.43-260.045-217.19-468.122-477.286-464.64zM557.926 197.99c47.872 0 62.003 27.75 62.003 59.546 0 39.68-31.795 76.39-86.016 76.39-45.363 0-66.918-22.835-65.638-60.518 0-31.795 26.624-75.418 89.651-75.418zM435.149 806.4c-32.717 0-56.678-19.866-33.792-107.213l37.53-154.829c6.502-24.832 7.578-34.765 0-34.765-9.779 0-52.275 17.152-77.414 34.048l-16.333-26.778c79.616-66.458 171.162-105.472 210.381-105.472 32.717 0 38.144 38.707 21.811 98.253l-43.008 162.816c-7.578 28.774-4.301 38.707 3.277 38.707 9.779 0 41.984-11.878 73.626-36.762l18.483 24.832c-77.363 77.363-161.792 107.162-194.56 107.162z"/> </symbol><symbol viewBox="0 0 1024 1024" id="icon-link"><title>Link icon (a section of chain)</title>  <path d="M726 298q88 0 150 63t62 151-62 151-150 63h-172v-82h172q54 0 93-39t39-93-39-93-93-39h-172v-82h172zM342 554v-84h340v84h-340zM166 512q0 54 39 93t93 39h172v82h-172q-88 0-150-63t-62-151 62-151 150-63h172v82h-172q-54 0-93 39t-39 93z"/> </symbol><symbol viewBox="0 0 1024 1024" id="icon-mail"><title>Mail icon (closed envelope)</title>  <path class="path1" d="M81.613 270.643c24.986 13.466 371.149 199.373 384.051 206.285 12.851 6.912 29.542 10.24 46.336 10.24 16.845 0 33.536-3.328 46.387-10.291 12.902-6.912 359.014-192.819 384-206.285 25.037-13.414 48.691-55.552 2.765-55.552h-866.253c-45.926 0-22.323 42.138 2.714 55.603zM952.986 373.043c-28.416 14.848-377.19 197.171-394.598 206.285s-29.542 10.291-46.387 10.291c-16.794 0-28.928-1.178-46.336-10.291s-366.234-191.488-394.598-206.285c-20.019-10.445-19.866 1.792-19.866 11.213s0 375.552 0 375.552c0 21.504 28.621 49.152 50.79 49.152h820.070c22.221 0 50.739-27.648 50.739-49.101 0 0 0-366.131 0-375.552 0-9.472 0.205-21.709-19.814-11.264z"/> </symbol><symbol viewBox="0 0 24 24" id="icon-map"><title>Map icon (a creased upright map)</title>  <path d="M15 18.984v-11.859l-6-2.109v11.859zM20.484 3q0.516 0 0.516 0.516v15.094q0 0.375-0.375 0.469l-5.625 1.922-6-2.109-5.344 2.063-0.141 0.047q-0.516 0-0.516-0.516v-15.094q0-0.375 0.375-0.469l5.625-1.922 6 2.109 5.344-2.063z"/> </symbol><symbol viewBox="0 0 24 24" id="icon-navigate-back"><title>Back icon (two consecutive arrows pointing left)</title>  <path d="M11.484 12l8.531-6v12zM11.016 18l-8.531-6 8.531-6v12z"/> </symbol><symbol viewBox="0 0 24 24" id="icon-navigate-first"><title>First icon (an arrow pointing left to a vertical wall)</title>  <path d="M9.516 12l8.484-6v12zM6 6h2.016v12h-2.016v-12z"/> </symbol><symbol viewBox="0 0 24 24" id="icon-navigate-forward"><title>Forward icon (two consecutive arrows pointing right)</title>  <path d="M12.984 6l8.531 6-8.531 6v-12zM3.984 18v-12l8.531 6z"/> </symbol><symbol viewBox="0 0 24 24" id="icon-navigate-last"><title>Last icon (an arrow pointing right to a vertical wall)</title>  <path d="M15.984 6h2.016v12h-2.016v-12zM6 18v-12l8.484 6z"/> </symbol><symbol viewBox="0 0 1024 1024" id="icon-open_in_new"><title>Open in new (a square frame with an arrow going from the centre of the frame to outside of the top right corner).</title>  <path d="M598 128h298v298h-86v-152l-418 418-60-60 418-418h-152v-86zM810 810v-298h86v298q0 34-26 60t-60 26h-596q-36 0-61-26t-25-60v-596q0-34 25-60t61-26h298v86h-298v596h596z"/> </symbol><symbol viewBox="0 0 1024 1024" id="icon-pause"><title>Pause icon (two vertical rectangles side by side)</title>  <path d="M659.56 0.672h291.7v1022.655h-291.7v-1022.655zM72.74 1023.328v-1022.655h291.7v1022.655h-291.7z"/> </symbol><symbol viewBox="0 0 24 24" id="icon-phone"><title>Phone icon (a classic phone handset in profile)</title>  <path d="M6.609 10.781q2.25 4.359 6.609 6.609l2.203-2.203q0.469-0.469 1.031-0.234 1.688 0.563 3.563 0.563 0.422 0 0.703 0.281t0.281 0.703v3.516q0 0.422-0.281 0.703t-0.703 0.281q-7.031 0-12.023-4.992t-4.992-12.023q0-0.422 0.281-0.703t0.703-0.281h3.516q0.422 0 0.703 0.281t0.281 0.703q0 1.875 0.563 3.563 0.188 0.609-0.234 1.031z"/> </symbol><symbol viewBox="0 0 1024 1024" id="icon-play"><title>Play icon (equilateral triangle pointing right)</title>  <path d="M220.3 0.672l803.025 511.328-803.025 511.328v-1022.655z"/> </symbol><symbol viewBox="0 0 24 24" id="icon-remove"><title>Remove icon (a minus symbol)</title>  <path d="M18.984 12.984h-13.969v-1.969h13.969v1.969z"/> </symbol><symbol viewBox="0 0 1024 1024" id="icon-rss"><title>RSS feed icon (waves radiating from a point, headed to the top right)</title>  <path class="path1" d="M102.502 143.309v121.242c362.803 0 656.896 294.144 656.896 656.947h121.293c0-429.773-348.416-778.189-778.189-778.189zM102.502 385.843v121.293c228.864 0 414.413 185.498 414.413 414.362h121.19c0-295.782-239.77-535.654-535.603-535.654zM218.726 689.050c-64.154 0-116.224 52.070-116.224 116.275s52.070 116.224 116.224 116.224c64.205 0 116.275-52.019 116.275-116.224s-52.070-116.275-116.275-116.275z"/> </symbol><symbol viewBox="0 0 768 768" id="icon-search"><title>Search icon (a magnifying glass)</title>  <path d="M304.5 448.5q60 0 102-42t42-102-42-102-102-42-102 42-42 102 42 102 102 42zM496.5 448.5l159 159-48 48-159-159v-25.5l-9-9q-57 49.5-135 49.5-87 0-147.75-60t-60.75-147 60.75-147.75 147.75-60.75 147 60.75 60 147.75q0 78-49.5 135l9 9h25.5z"/> </symbol><symbol viewBox="0 0 1024 1024" id="icon-success"><title>Success icon (checkmark within a circle)</title>  <path d="M426 726l384-384-60-62-324 324-152-152-60 60zM512 86q176 0 301 125t125 301-125 301-301 125-301-125-125-301 125-301 301-125z"/> </symbol><symbol viewBox="0 0 1024 1024" id="icon-throbber"><title>Throbber icon (two arrows chasing each others&apos; tails)</title>  <path class="path1" d="M540.076 883.17v121.822l-227.826-196.922 227.826-196.924v146.946c122.704-14.364 217.96-118.54 217.96-245.086 0-41.608-10.412-80.76-28.594-115.16l90.826-90.812c39.352 58.974 62.366 129.764 62.366 205.972 0 195.428-150.948 355.292-342.558 370.164zM481.542 268.014c-122.41 14.63-217.374 118.646-217.374 244.992 0 41.328 10.292 80.226 28.246 114.48l-90.986 90.986c-39.152-58.87-62.060-129.458-62.060-205.466 0-195.308 150.736-355.092 342.172-370.15v-121.85l227.826 196.936-227.826 196.936v-146.864z"/> </symbol><symbol viewBox="0 0 1024 1024" id="icon-upload"><title>Upload icon (arrow pointing up)</title>  <path fill="#444" d="M214 768h596v86h-596v-86zM384 682v-256h-170l298-298 298 298h-170v256h-256z"/> </symbol><symbol viewBox="0 0 1024 1024" id="icon-warning"><title>Warning icon (exclamation mark within a triangle)</title>  <path d="M554 598v-172h-84v172h84zM554 768v-86h-84v86h84zM42 896l470-810 470 810h-940z"/> </symbol></svg>