<svg xmlns="http://www.w3.org/2000/svg"><symbol viewBox="0 0 1024 1024" id="icon-arrow-down"><title>arrow-down</title>  <path d="M513.002 810.8l497.1-497.092-90.51-90.51-406.59 406.592-408.594-408.592-90.51 90.51z"/> </symbol><symbol viewBox="0 0 1024 1024" id="icon-arrow-left"><title>arrow-left</title>  <path d="M716.292 1014.102l90.51-90.51-408.59-408.594 406.59-406.59-90.51-90.51-497.096 497.1z"/> </symbol><symbol viewBox="0 0 1024 1024" id="icon-arrow-right"><title>arrow-right</title>  <path d="M806.804 514.998l-497.098-497.1-90.51 90.51 406.592 406.59-408.592 408.594 90.51 90.51z"/> </symbol><symbol viewBox="0 0 1024 1024" id="icon-arrow-up"><title>arrow-up</title>  <path d="M13.898 720.292l90.51 90.51 408.594-408.59 406.59 406.59 90.51-90.51-497.1-497.094z"/> </symbol><symbol viewBox="0 0 1024 1024" id="icon-bookmark-outline"><title>bookmark-outline</title>  <path d="M102.4 102.4c0-56.32 46.080-102.4 102.4-102.4h614.4c56.554 0 102.4 45.846 102.4 102.4v0 921.6l-409.6-204.8-409.6 204.8v-921.6zM204.8 102.4v768l307.2-153.6 307.2 153.6v-768h-614.4z"/> </symbol><symbol viewBox="0 0 1024 1024" id="icon-bookmark"><title>bookmark</title>  <path d="M102.4 102.4c0-56.32 46.080-102.4 102.4-102.4h614.4c56.554 0 102.4 45.846 102.4 102.4v0 921.6l-409.6-204.8-409.6 204.8v-921.6z"/> </symbol><symbol viewBox="0 0 1024 1024" id="icon-calendar"><title>calendar</title>  <path d="M870.4 153.6h-51.2v102.4h-153.6v-102.4h-307.2v102.4h-153.6v-102.4h-51.2c-56.371 0-102.4 46.080-102.4 102.4v614.4c0 56.32 46.029 102.4 102.4 102.4h716.8c56.32 0 102.4-46.080 102.4-102.4v-614.4c0-56.32-46.080-102.4-102.4-102.4zM870.4 870.4h-716.8v-409.6h716.8v409.6zM332.8 51.2h-102.4v179.2h102.4v-179.2zM793.6 51.2h-102.4v179.2h102.4v-179.2z"/> </symbol><symbol viewBox="0 0 896 1024" id="icon-gear"><title>gear</title>  <path d="M896 561.28v-102.4l-124.16-40.96-28.8-69.76 56.32-117.76-72.32-72.32-115.84 58.24-69.76-28.8-44.16-122.88h-102.4l-40.32 124.16-71.040 28.8-117.76-56.32-72.32 72.32 58.24 115.84-28.8 69.76-122.88 43.52v101.76l124.16 40.96 28.8 69.76-56.32 117.76 72.32 72.32 115.84-58.24 69.76 28.8 44.16 122.88h101.76l40.32-124.16 71.040-28.8 117.76 56.32 72.32-72.32-58.88-115.84 30.080-69.76 122.88-44.16v1.28zM448 704c-106.24 0-192-85.76-192-192s85.76-192 192-192c106.24 0 192 85.76 192 192s-85.76 192-192 192v0z"/> </symbol><symbol viewBox="0 0 1024 1024" id="icon-info"><title>info</title>  <path d="M512 20.48c-271.514 0-491.571 220.058-491.571 491.52 0 271.514 220.058 491.571 491.571 491.571 271.411 0 491.52-220.058 491.52-491.571 0-271.462-220.109-491.52-491.52-491.52zM557.875 197.939c47.923 0 62.003 27.802 62.003 59.597 0 39.68-31.744 76.39-85.965 76.39-45.363 0-66.97-22.784-65.638-60.518 0-31.795 26.573-75.469 89.6-75.469zM435.098 806.4c-32.768 0-56.678-19.917-33.792-107.213l37.53-154.88c6.502-24.781 7.578-34.714 0-34.714-9.779 0-52.326 17.101-77.414 33.997l-16.333-26.778c79.616-66.509 171.162-105.523 210.33-105.523 32.768 0 38.195 38.707 21.862 98.304l-43.008 162.816c-7.629 28.774-4.352 38.707 3.277 38.707 9.83 0 41.984-11.878 73.626-36.813l18.534 24.883c-77.466 77.414-161.894 107.213-194.611 107.213z"/> </symbol><symbol viewBox="0 0 1024 1024" id="icon-mail"><title>mail</title>  <path d="M80.589 270.643c24.986 13.414 371.098 199.373 384 206.285s29.594 10.189 46.387 10.189c16.794 0 33.485-3.277 46.387-10.189s359.014-192.87 384-206.285c25.037-13.466 48.691-65.843 2.765-65.843h-866.253c-45.926 0-22.272 52.378 2.714 65.843zM952.986 383.437c-28.416 14.797-378.214 197.069-395.622 206.182s-29.594 10.189-46.387 10.189-28.979-1.075-46.387-10.189-365.21-191.437-393.626-206.234c-19.968-10.445-19.763 1.792-19.763 11.213s0 373.402 0 373.402c0 21.504 28.979 51.2 51.2 51.2h819.2c22.221 0 51.2-29.696 51.2-51.2 0 0 0-363.93 0-373.35s0.205-21.658-19.814-11.213z"/> </symbol><symbol viewBox="0 0 1024 1024" id="icon-pager-first"><title>pager-first</title>  <path d="M781.525 1003.989l89.387-89.429-403.541-403.541 401.579-401.579-89.387-89.387-490.965 490.965 492.928 492.971z"/> <path d="M153.088 20.053v983.979l126.379-0.085 0.043-983.893h-126.421z"/> </symbol><symbol viewBox="0 0 1024 1024" id="icon-pager-last"><title>pager-last</title>  <path d="M735.403 511.019l-490.965-490.965-89.387 89.387 401.579 401.579-403.541 403.584 89.344 89.387 492.971-492.971z"/> <path d="M744.491 20.053l0.043 983.851 126.379 0.085v-983.936h-126.421z"/> </symbol><symbol viewBox="0 0 1024 1024" id="icon-pager-next"><title>pager-next</title>  <path d="M803.157 511.019l-490.965-490.965-89.387 89.387 401.579 401.579-403.541 403.584 89.344 89.344 492.971-492.928z"/> </symbol><symbol viewBox="0 0 1024 1024" id="icon-pager-previous"><title>pager-previous</title>  <path d="M713.771 1003.947l89.429-89.387-403.541-403.584 401.536-401.579-89.429-89.344-490.923 490.965 492.928 492.928z"/> </symbol><symbol viewBox="0 0 1024 1024" id="icon-rss"><title>rss</title>  <path d="M122.88 122.88v121.19c362.803 0 656.896 294.195 656.896 656.998h121.293c0-429.773-348.416-778.189-778.189-778.189zM122.88 365.414v121.293c228.813 0 414.362 185.498 414.362 414.413h121.242c0-295.834-239.821-535.706-535.603-535.706zM239.053 668.621c-64.205 0-116.224 52.122-116.224 116.275s52.019 116.224 116.224 116.224 116.173-52.019 116.173-116.224-51.968-116.275-116.173-116.275z"/> </symbol><symbol viewBox="0 0 1024 1024" id="icon-spinner"><title>spinner</title>  <path d="M540.076 883.17v121.822l-227.826-196.922 227.826-196.924v146.946c122.704-14.364 217.96-118.54 217.96-245.086 0-41.608-10.412-80.76-28.594-115.16l90.826-90.812c39.352 58.974 62.366 129.764 62.366 205.972 0 195.428-150.948 355.292-342.558 370.164zM481.542 268.014c-122.41 14.63-217.374 118.646-217.374 244.992 0 41.328 10.292 80.226 28.246 114.48l-90.986 90.986c-39.152-58.87-62.060-129.458-62.060-205.466 0-195.308 150.736-355.092 342.172-370.15v-121.85l227.826 196.936-227.826 196.936v-146.864z"/> </symbol></svg>