<svg xmlns="http://www.w3.org/2000/svg"><symbol viewBox="0 0 24 24" id="icon-add"><title>Add icon (a plus symbol)</title>  <path d="M18.984 12.984h-6v6h-1.969v-6h-6v-1.969h6v-6h1.969v6h6v1.969z"/> </symbol><symbol viewBox="0 0 1024 1024" id="icon-bookmark_outline"><title>Bookmark icon (A vertical rectangle with a triangular indentation on the bottom edge)</title>  <path d="M726 768v-554h-428v554l214-94zM726 128q34 0 59 26t25 60v682l-298-128-298 128v-682q0-34 25-60t59-26h428z"/> </symbol><symbol viewBox="0 0 1024 1024" id="icon-bookmark"><title>Bookmark icon (A vertical rectangle with a triangular indentation on the bottom edge)</title>  <path d="M726 128q34 0 59 26t25 60v682l-298-128-298 128v-682q0-34 25-60t59-26h428z"/> </symbol><symbol viewBox="0 0 1024 1024" id="icon-check_circle"><title>Success icon (checkmark within a circle)</title>  <path d="M426 726l384-384-60-62-324 324-152-152-60 60zM512 86q176 0 301 125t125 301-125 301-301 125-301-125-125-301 125-301 301-125z"/> </symbol><symbol viewBox="0 0 1024 1024" id="icon-close"><title>Close icon (Two crossed bars resembling a letter &quot;x&quot;)</title>  <path d="M810 274l-238 238 238 238-60 60-238-238-238 238-60-60 238-238-238-238 60-60 238 238 238-238z"/> </symbol><symbol viewBox="0 0 1024 1024" id="icon-error"><title>Error icon (exclamation mark within an octogon)</title>  <path d="M554 554v-256h-84v256h84zM512 738q22 0 39-17t17-39-17-38-39-16-39 16-17 38 17 39 39 17zM672 128l224 224v320l-224 224h-320l-224-224v-320l224-224h320z"/> </symbol><symbol viewBox="0 0 1024 1024" id="icon-file_download"><title>Download icon (arrow pointing down)</title>  <path d="M214 768h596v86h-596v-86zM810 384l-298 298-298-298h170v-256h256v256h170z"/> </symbol><symbol viewBox="0 0 1024 1024" id="icon-file_upload"><title>Upload icon (arrow pointing up)</title>  <path d="M214 768h596v86h-596v-86zM384 682v-256h-170l298-298 298 298h-170v256h-256z"/> </symbol><symbol viewBox="0 0 1024 1024" id="icon-help"><title>Help icon (question mark within a circle)</title>  <path d="M642 480q40-40 40-96 0-70-50-120t-120-50-120 50-50 120h84q0-34 26-60t60-26 60 26 26 60-26 60l-52 54q-50 54-50 120v22h84q0-66 50-120zM554 810v-84h-84v84h84zM512 86q176 0 301 125t125 301-125 301-301 125-301-125-125-301 125-301 301-125z"/> </symbol><symbol viewBox="0 0 1024 1024" id="icon-link"><title>Link icon (a section of chain)</title>  <path d="M726 298q88 0 150 63t62 151-62 151-150 63h-172v-82h172q54 0 93-39t39-93-39-93-93-39h-172v-82h172zM342 554v-84h340v84h-340zM166 512q0 54 39 93t93 39h172v82h-172q-88 0-150-63t-62-151 62-151 150-63h172v82h-172q-54 0-93 39t-39 93z"/> </symbol><symbol viewBox="0 0 24 24" id="icon-map"><title>Map icon (a creased upright map)</title>  <path d="M15 18.984v-11.859l-6-2.109v11.859zM20.484 3q0.516 0 0.516 0.516v15.094q0 0.375-0.375 0.469l-5.625 1.922-6-2.109-5.344 2.063-0.141 0.047q-0.516 0-0.516-0.516v-15.094q0-0.375 0.375-0.469l5.625-1.922 6 2.109 5.344-2.063z"/> </symbol><symbol viewBox="0 0 1024 1024" id="icon-open_in_new"><title>Open in new (a square frame with an arrow going from the centre of the frame to outside of the top right corner).</title>  <path d="M598 128h298v298h-86v-152l-418 418-60-60 418-418h-152v-86zM810 810v-298h86v298q0 34-26 60t-60 26h-596q-36 0-61-26t-25-60v-596q0-34 25-60t61-26h298v86h-298v596h596z"/> </symbol><symbol viewBox="0 0 1024 1024" id="icon-pause"><title>Pause icon (two vertical rectangles side by side)</title>  <path d="M659.56 0.672h291.7v1022.655h-291.7v-1022.655zM72.74 1023.328v-1022.655h291.7v1022.655h-291.7z"/> </symbol><symbol viewBox="0 0 24 24" id="icon-phone"><title>Phone icon (a classic phone handset in profile)</title>  <path d="M6.609 10.781q2.25 4.359 6.609 6.609l2.203-2.203q0.469-0.469 1.031-0.234 1.688 0.563 3.563 0.563 0.422 0 0.703 0.281t0.281 0.703v3.516q0 0.422-0.281 0.703t-0.703 0.281q-7.031 0-12.023-4.992t-4.992-12.023q0-0.422 0.281-0.703t0.703-0.281h3.516q0.422 0 0.703 0.281t0.281 0.703q0 1.875 0.563 3.563 0.188 0.609-0.234 1.031z"/> </symbol><symbol viewBox="0 0 1024 1024" id="icon-play"><title>Play icon (equilateral triangle pointing right)</title>  <path d="M220.3 0.672l803.025 511.328-803.025 511.328v-1022.655z"/> </symbol><symbol viewBox="0 0 24 24" id="icon-remove"><title>Remove icon (a minus symbol)</title>  <path d="M18.984 12.984h-13.969v-1.969h13.969v1.969z"/> </symbol><symbol viewBox="0 0 768 768" id="icon-search"><title>Search icon (a magnifying glass)</title>  <path d="M304.5 448.5q60 0 102-42t42-102-42-102-102-42-102 42-42 102 42 102 102 42zM496.5 448.5l159 159-48 48-159-159v-25.5l-9-9q-57 49.5-135 49.5-87 0-147.75-60t-60.75-147 60.75-147.75 147.75-60.75 147 60.75 60 147.75q0 78-49.5 135l9 9h25.5z"/> </symbol><symbol viewBox="0 0 1024 1024" id="icon-warning"><title>Warning icon (exclamation mark within a triangle)</title>  <path d="M554 598v-172h-84v172h84zM554 768v-86h-84v86h84zM42 896l470-810 470 810h-940z"/> </symbol></svg>