<svg xmlns="http://www.w3.org/2000/svg"><symbol viewBox="0 0 32 32" id="icon-barchart"><title>barchart</title>  <path d="M8 27.058c0 0.55-0.45 1-1 1h-6c-0.55 0-1-0.45-1-1v-8.5c0-0.548 0.45-1 1-1h6c0.55 0 1 0.452 1 1v8.5zM20.004 27.058c0 0.55-0.45 1-1 1h-6.004c-0.55 0-1-0.45-1-1v-26c0-0.55 0.45-1 1-1h6.004c0.55 0 1 0.45 1 1v26zM32.004 27.058c0 0.55-0.45 1-1 1h-6c-0.55 0-1-0.45-1-1v-19c0-0.55 0.45-1 1-1h6c0.55 0 1 0.45 1 1v19z"/> </symbol><symbol viewBox="0 0 32 32" id="icon-capital-sans"><title>capital-sans</title>  <path d="M22.52 28h5.074l-9.048-23.1h-4.938l-9.198 23.1h4.94l1.802-4.942h9.468l1.9 4.942zM16.024 10.438l3.006 8.622h-6.35l3.344-8.622z"/> </symbol><symbol viewBox="0 0 32 32" id="icon-capital-serif"><title>capital-serif</title>  <path d="M25.356 24.394l-7.372-22.136h-0.746s-0.332 1.85-2.426 2.706h-0.872l-6.964 18.584s-1.068 2.876-2.896 2.876h-0.85v1.636h6.59v-1.364l-0.454-0.040c-0.512-0.192-0.77-0.762-0.606-1.27l2.020-5.386h6.814c0.652 2.164 1.152 3.82 1.292 4.246 0.496 1.492-0.124 2.164-1.644 2.164v1.648h11.532v-1.624c-1.856 0.002-2.938-0.72-3.418-2.040zM11.528 18l3.046-8.128 2.422 8.128h-5.468z"/> </symbol><symbol viewBox="0 0 32 32" id="icon-caret-down"><title>caret-down</title>  <path d="M7.6 10.8c-0.33-0.44-0.15-0.8 0.4-0.8h16.004c0.55 0 0.73 0.36 0.398 0.8l-7.796 10.4c-0.332 0.442-0.872 0.442-1.2 0l-7.806-10.4z"/> </symbol><symbol viewBox="0 0 32 32" id="icon-caret-left"><title>caret-left</title>  <path d="M21.204 24.43c0.452 0.328 0.8 0.148 0.8-0.402v-16c0-0.55-0.36-0.73-0.8-0.4l-10.404 7.8c-0.44 0.33-0.44 0.87 0 1.202l10.404 7.8z"/> </symbol><symbol viewBox="0 0 32 32" id="icon-caret-right"><title>caret-right</title>  <path d="M10.8 24.43c-0.44 0.328-0.8 0.148-0.8-0.402v-16c0-0.55 0.36-0.73 0.8-0.4l10.404 7.8c0.452 0.33 0.452 0.87 0 1.202l-10.404 7.8z"/> </symbol><symbol viewBox="0 0 32 32" id="icon-caret-up"><title>caret-up</title>  <path d="M7.6 21.2c-0.33 0.44-0.15 0.8 0.4 0.8h16.004c0.55 0 0.73-0.36 0.398-0.8l-7.796-10.4c-0.332-0.44-0.872-0.44-1.2 0l-7.806 10.4z"/> </symbol><symbol viewBox="0 0 32 32" id="icon-check"><title>check</title>  <path d="M12.928 27.352c-0.388 0.388-1.026 0.388-1.414 0l-9.92-9.91c-0.388-0.386-0.388-1.026 0-1.414l2.81-2.814c0.388-0.39 1.024-0.39 1.414 0l5.698 5.696c0.388 0.386 1.026 0.386 1.414 0l13.258-13.252c0.39-0.388 1.028-0.388 1.414 0l2.808 2.808c0.386 0.388 0.386 1.026 0 1.414l-17.482 17.472z"/> </symbol><symbol viewBox="0 0 32 32" id="icon-chevron-disc-down"><title>chevron-disc-down</title>  <path d="M16.004 2c-7.738 0-14.004 6.268-14.004 14s6.266 14 14.004 14c7.73 0 14-6.268 14-14s-6.27-14-14-14zM24.922 14.672l-8.21 8.21c-0.392 0.378-1.030 0.378-1.416 0l-8.214-8.21c-0.388-0.388-0.388-1.026 0-1.414l1.954-1.956c0.388-0.388 1.026-0.388 1.414 0l4.844 4.842c0.384 0.39 1.026 0.39 1.416 0l4.844-4.84c0.376-0.388 1.024-0.388 1.414 0l1.954 1.954c0.386 0.388 0.386 1.026 0 1.414z"/> </symbol><symbol viewBox="0 0 32 32" id="icon-chevron-disc-left"><title>chevron-disc-left</title>  <path d="M16.004 2c-7.736 0-14.004 6.266-14.004 14 0 7.73 6.268 14 14.004 14 7.73 0 14-6.27 14-14 0-7.734-6.27-14-14-14zM20.7 22.964l-1.954 1.954c-0.39 0.386-1.028 0.386-1.414 0l-8.216-8.21c-0.388-0.39-0.388-1.028 0-1.416l8.216-8.21c0.386-0.388 1.024-0.388 1.414 0l1.958 1.954c0.382 0.388 0.382 1.026 0 1.414l-4.844 4.842c-0.39 0.388-0.39 1.030 0 1.416l4.838 4.842c0.392 0.38 0.392 1.024 0.002 1.414z"/> </symbol><symbol viewBox="0 0 32 32" id="icon-chevron-disc-right"><title>chevron-disc-right</title>  <path d="M16.004 2c-7.736 0-14.004 6.27-14.004 14 0 7.734 6.268 14 14.004 14 7.73 0 14-6.266 14-14 0-7.73-6.27-14-14-14zM22.886 16.714l-8.212 8.208c-0.388 0.382-1.028 0.382-1.416 0l-1.956-1.958c-0.388-0.386-0.388-1.036 0-1.414l4.846-4.842c0.39-0.39 0.39-1.028 0-1.416l-4.844-4.842c-0.388-0.388-0.388-1.026 0-1.414l1.954-1.954c0.388-0.388 1.028-0.388 1.416 0l8.212 8.216c0.382 0.388 0.382 1.030 0 1.416z"/> </symbol><symbol viewBox="0 0 32 32" id="icon-chevron-disc-up"><title>chevron-disc-up</title>  <path d="M16.004 2c-7.734 0-14.004 6.268-14.004 14s6.27 14 14.004 14 14-6.268 14-14-6.266-14-14-14zM24.928 18.74l-1.958 1.958c-0.38 0.38-1.032 0.38-1.414 0l-4.844-4.838c-0.392-0.388-1.030-0.388-1.416 0l-4.846 4.834c-0.388 0.386-1.026 0.386-1.414 0l-1.954-1.952c-0.388-0.388-0.388-1.028 0-1.414l8.212-8.212c0.386-0.388 1.030-0.388 1.416 0l8.218 8.21c0.38 0.384 0.38 1.026 0 1.414z"/> </symbol><symbol viewBox="0 0 32 32" id="icon-chevron-double-left"><title>chevron-double-left</title>  <path d="M29.536 8.71c0.386-0.392 0.382-1.030-0.004-1.418l-2.742-2.742c-0.376-0.388-1.024-0.388-1.41 0.002l-10.666 10.74c-0.39 0.39-0.39 1.030 0 1.418l10.666 10.74c0.386 0.382 1.034 0.384 1.41 0l2.742-2.742c0.386-0.38 0.39-1.032 0.004-1.418l-6.516-6.58c-0.386-0.388-0.386-1.032 0-1.42l6.516-6.58zM15.534 8.71c0.386-0.39 0.384-1.028-0.004-1.418l-2.744-2.742c-0.39-0.388-1.026-0.386-1.412 0.002l-10.668 10.74c-0.388 0.39-0.388 1.030 0 1.418l10.668 10.74c0.388 0.382 1.024 0.384 1.412 0l2.744-2.742c0.388-0.38 0.39-1.032 0.004-1.418l-6.518-6.58c-0.388-0.39-0.388-1.034 0-1.422l6.518-6.578z"/> </symbol><symbol viewBox="0 0 32 32" id="icon-chevron-double-right"><title>chevron-double-right</title>  <path d="M2.47 8.71c-0.388-0.39-0.386-1.028 0.002-1.418l2.742-2.742c0.39-0.388 1.026-0.386 1.412 0.002l10.67 10.738c0.376 0.39 0.376 1.030 0 1.416l-10.67 10.74c-0.388 0.384-1.024 0.386-1.412 0.004l-2.742-2.742c-0.388-0.382-0.39-1.034-0.002-1.418l6.514-6.58c0.388-0.39 0.388-1.034 0-1.422l-6.514-6.578zM16.472 8.71c-0.386-0.39-0.386-1.028 0.004-1.418l2.744-2.742c0.38-0.388 1.028-0.388 1.41 0.002l10.668 10.738c0.38 0.39 0.38 1.030 0 1.416l-10.668 10.74c-0.382 0.384-1.030 0.386-1.41 0.004l-2.744-2.742c-0.39-0.382-0.39-1.034-0.004-1.418l6.516-6.58c0.386-0.39 0.386-1.034 0-1.422l-6.516-6.578z"/> </symbol><symbol viewBox="0 0 32 32" id="icon-chevron-down"><title>chevron-down</title>  <path d="M15.292 16.102c0.39 0.386 1.032 0.386 1.422 0l6.58-6.516c0.384-0.386 1.036-0.384 1.418 0.004l2.742 2.742c0.38 0.388 0.38 1.024 0 1.412l-10.74 10.668c-0.39 0.388-1.036 0.388-1.418 0l-10.744-10.668c-0.388-0.388-0.39-1.024-0.002-1.412l2.742-2.742c0.39-0.388 1.028-0.39 1.418-0.004l6.582 6.516z"/> </symbol><symbol viewBox="0 0 32 32" id="icon-chevron-left"><title>chevron-left</title>  <path d="M15.902 15.29c-0.386 0.392-0.386 1.032 0 1.42l6.516 6.58c0.386 0.386 0.382 1.038-0.004 1.418l-2.742 2.742c-0.386 0.384-1.024 0.382-1.414 0l-10.67-10.742c-0.388-0.388-0.388-1.028 0-1.416l10.67-10.738c0.39-0.39 1.028-0.39 1.414-0.002l2.742 2.742c0.386 0.388 0.39 1.026 0.004 1.418l-6.516 6.578z"/> </symbol><symbol viewBox="0 0 32 32" id="icon-chevron-right"><title>chevron-right</title>  <path d="M16.106 16.71c0.386-0.39 0.386-1.034 0-1.422l-6.52-6.578c-0.386-0.39-0.384-1.028 0.004-1.418l2.742-2.742c0.388-0.388 1.024-0.386 1.412 0.002l10.67 10.738c0.39 0.39 0.39 1.030 0 1.416l-10.67 10.74c-0.388 0.384-1.024 0.386-1.412 0.004l-2.742-2.742c-0.388-0.39-0.39-1.028-0.004-1.418l6.52-6.58z"/> </symbol><symbol viewBox="0 0 32 32" id="icon-chevron-up"><title>chevron-up</title>  <path d="M16.714 15.9c-0.39-0.388-1.036-0.388-1.422 0l-6.582 6.514c-0.39 0.386-1.028 0.382-1.418-0.004l-2.742-2.742c-0.388-0.386-0.386-1.024 0.002-1.412l10.74-10.668c0.388-0.388 1.032-0.388 1.418 0l10.74 10.668c0.38 0.388 0.384 1.026 0.004 1.412l-2.742 2.742c-0.386 0.386-1.038 0.39-1.418 0.004l-6.58-6.514z"/> </symbol><symbol viewBox="0 0 32 32" id="icon-cog"><title>cog</title>  <path d="M30.352 18.082c0.090-0.654 0.152-1.316 0.152-1.996 0-0.72-0.070-1.42-0.172-2.112l-4.55-0.586c-0.23-0.852-0.566-1.654-0.996-2.402l2.792-3.616c-0.832-1.102-1.812-2.078-2.918-2.904l-3.614 2.782c-0.746-0.43-1.548-0.766-2.4-0.998l-0.584-4.504c-0.676-0.096-1.354-0.162-2.058-0.162s-1.388 0.066-2.064 0.164l-0.582 4.502c-0.852 0.232-1.652 0.568-2.4 0.998l-3.61-2.782c-1.104 0.826-2.088 1.802-2.918 2.904l2.79 3.616c-0.43 0.748-0.766 1.548-0.998 2.4l-4.552 0.588c-0.1 0.692-0.17 1.392-0.17 2.112 0 0.68 0.062 1.342 0.154 1.996l4.57 0.59c0.23 0.852 0.568 1.652 0.998 2.4l-2.834 3.672c0.822 1.1 1.792 2.076 2.886 2.904l3.684-2.84c0.748 0.43 1.548 0.766 2.4 0.996l0.596 4.622c0.674 0.094 1.354 0.16 2.050 0.16s1.376-0.066 2.042-0.16l0.598-4.622c0.852-0.23 1.652-0.566 2.402-0.996l3.684 2.84c1.094-0.828 2.062-1.804 2.886-2.904l-2.832-3.674c0.43-0.746 0.766-1.546 0.996-2.398l4.572-0.59zM16.004 21.11c-2.812 0-5.086-2.274-5.086-5.082 0-2.804 2.274-5.082 5.086-5.082 2.804 0 5.082 2.276 5.082 5.082 0 2.808-2.278 5.082-5.082 5.082z"/> </symbol><symbol viewBox="0 0 32 32" id="icon-comment-locked"><title>comment-locked</title>  <path d="M24.16 22.582c0.93-0.764 1.71-1.632 2.328-2.582h-7.734c-2.066 0-3.75-1.684-3.75-3.75v-8.5c0-1.436 0.812-2.686 2-3.316v-0.012c-0.968-0.164-1.97-0.256-3.004-0.256-7.732 0-14 4.888-14 10.918s6.268 10.916 14 10.916c0.956 0 1.886-0.078 2.79-0.218 3.79 6.44 10.214 6.218 10.214 6.218s-4.57-3.676-2.844-9.418zM31.254 7h-1.25v-3c0-2.762-2.238-5-5-5s-5 2.238-5 5v3h-1.25c-0.414 0-0.75 0.338-0.75 0.75v8.5c0 0.412 0.336 0.75 0.75 0.75h12.5c0.41 0 0.75-0.338 0.75-0.75v-8.5c0-0.412-0.34-0.75-0.75-0.75zM22.52 4c0-1.37 1.118-2.482 2.484-2.482s2.48 1.114 2.48 2.482v3h-4.964v-3z"/> </symbol><symbol viewBox="0 0 32 32" id="icon-comment-pinned"><title>comment-pinned</title>  <path d="M23.64 22.336c2.664-1.562 4.364-3.924 4.364-6.566 0-4.168-4.234-7.618-9.804-8.348 1.652-0.804 2.804-2.488 2.804-4.454 0-2.742-2.222-4.966-4.968-4.966s-4.964 2.224-4.964 4.966c0 1.96 1.146 3.64 2.794 4.448-5.592 0.724-9.836 4.18-9.836 8.354 0 4.696 5.366 8.508 11.986 8.508l0.372-0.014c3.992 5.94 10.566 5.734 10.566 5.734s-4.044-2.948-3.314-7.662zM14 15.822v-8.33c0.624 0.28 1.308 0.444 2.036 0.444 0.708 0 1.372-0.148 1.968-0.41v8.294c0 1.618-4.004 1.652-4.004 0.002z"/> </symbol><symbol viewBox="0 0 32 32" id="icon-comment-starred"><title>comment-starred</title>  <path d="M26.168 20.558c0.938-0.782 1.746-1.656 2.364-2.624-0.782-0.070-1.54-0.294-2.192-0.734l-1.336-0.902-1.336 0.902c-0.774 0.522-1.68 0.8-2.618 0.8-0.958 0-1.876-0.29-2.652-0.828-1.606-1.114-2.348-3.048-1.894-4.938l0.528-2.228-1.576-1.568c-1.354-1.284-1.818-3.288-1.15-5.044 0.164-0.434 0.396-0.83 0.67-1.186-7.254 0.412-12.976 5.118-12.976 10.876 0 6.030 6.268 10.916 14.004 10.916 0.954 0 1.872-0.1 2.77-0.242 3.79 6.468 10.23 6.242 10.23 6.242s-4.582-3.688-2.836-9.442zM31.96 4.812c-0.102-0.264-0.352-0.438-0.632-0.438h-3.976l-1.714-3.948c-0.106-0.258-0.356-0.426-0.634-0.426s-0.528 0.168-0.628 0.426l-1.716 3.948h-3.976c-0.282 0-0.536 0.174-0.632 0.438-0.098 0.262-0.028 0.56 0.188 0.744l3.208 3.192-1.048 4.416c-0.066 0.274 0.042 0.554 0.274 0.714 0.12 0.080 0.25 0.12 0.38 0.12 0.124 0 0.268-0.038 0.376-0.116l3.57-2.41 3.574 2.412c0.118 0.076 0.25 0.116 0.384 0.116s0.28-0.040 0.382-0.12c0.23-0.16 0.34-0.44 0.278-0.714l-1.042-4.416 3.208-3.192c0.204-0.186 0.274-0.482 0.176-0.746z"/> </symbol><symbol viewBox="0 0 32 32" id="icon-comment"><title>comment</title>  <path d="M26.16 20.582c2.376-1.958 3.844-4.592 3.844-7.5 0-6.030-6.27-10.918-14-10.918-7.736 0-14.004 4.888-14.004 10.918 0 6.032 6.268 10.916 14.004 10.916 0.954 0 1.882-0.078 2.786-0.216 3.79 6.44 10.214 6.218 10.214 6.218s-4.57-3.676-2.844-9.418z"/> </symbol><symbol viewBox="0 0 32 32" id="icon-comments-starred"><title>comments-starred</title>  <path d="M5.13 11.082l0.002-0.042c-3.036 1.24-5.132 3.69-5.132 6.548 0 2.292 1.36 4.314 3.454 5.676 0.612 4.142-2.622 6.736-2.622 6.736s5.23 0.176 8.398-5.016l0.286 0.024c2.302 0 4.384-0.664 6.034-1.722-6.054-1.75-10.42-6.554-10.42-12.204zM27.848 17.928c0.938-0.608 1.762-1.318 2.41-2.124-0.422 0.124-0.86 0.198-1.3 0.198l-0.582-0.086 0.042-0.096-0.164 0.076c-0.68-0.104-1.336-0.308-1.91-0.698l-1.328-0.9-1.348 0.902c-0.758 0.518-1.668 0.798-2.618 0.798-0.958 0-1.876-0.286-2.656-0.826-1.604-1.12-2.344-3.052-1.89-4.938l0.528-2.226-1.576-1.568c-0.768-0.728-1.21-1.692-1.364-2.706-2.996 1.608-4.962 4.3-4.962 7.348 0 4.924 5.122 8.916 11.436 8.916l0.352-0.018c3.804 6.226 10.086 6.018 10.086 6.018s-3.876-3.108-3.156-8.070zM31.96 2.812c-0.102-0.264-0.352-0.438-0.632-0.438h-3.976l-1.714-3.948c-0.106-0.256-0.356-0.426-0.634-0.426s-0.528 0.17-0.628 0.428l-1.716 3.948h-3.98c-0.282 0-0.532 0.174-0.628 0.438-0.102 0.264-0.032 0.56 0.182 0.746l3.208 3.192-1.042 4.416c-0.070 0.272 0.042 0.552 0.266 0.712 0.116 0.080 0.252 0.12 0.384 0.12 0.124 0 0.266-0.038 0.376-0.116l3.578-2.41 3.57 2.41c0.118 0.078 0.25 0.116 0.38 0.116 0.132 0 0.284-0.040 0.386-0.12 0.226-0.16 0.336-0.442 0.274-0.714l-1.042-4.416 3.208-3.192c0.208-0.184 0.278-0.482 0.18-0.746z"/> </symbol><symbol viewBox="0 0 32 32" id="icon-comments"><title>comments</title>  <path d="M5.13 10.916l0.002-0.042c-3.036 1.24-5.132 3.69-5.132 6.548 0 2.292 1.36 4.314 3.454 5.676 0.612 4.142-2.622 6.736-2.622 6.736s5.23 0.176 8.398-5.014l0.286 0.022c2.302 0 4.384-0.664 6.034-1.724-6.054-1.746-10.42-6.552-10.42-12.202zM27.84 17.796c2.542-1.636 4.164-4.122 4.164-6.88 0-4.924-5.122-8.916-11.438-8.916s-11.436 3.992-11.436 8.916 5.122 8.916 11.436 8.916l0.356-0.014c3.804 6.224 10.082 6.014 10.082 6.014s-3.86-3.092-3.164-8.036z"/> </symbol><symbol viewBox="0 0 32 32" id="icon-dashboard"><title>dashboard</title>  <path d="M10.33 8.188c1.984-0.786 4.134-1.128 6.264-1.070 2.118 0.046 4.218 0.512 6.14 1.398 2.072 0.95 3.942 2.336 5.426 4.066 1.802 2.11 3.068 4.684 3.566 7.428 0.18 0.962 0.26 1.944 0.274 2.928-0.070 0.196-0.066 0.404-0.14 0.602-0.266 0.77-1.038 1.372-1.87 1.344-2.974-0.016-5.952 0.012-8.918-0.016 2.062-2.66 4.158-5.294 6.228-7.954 0.514-0.696 0.726-1.592 0.57-2.438-0.15-0.926-0.796-1.778-1.676-2.124-1.136-0.442-2.516-0.194-3.4 0.644-2.402 2.358-4.792 4.712-7.198 7.068-0.492 0.088-0.992 0.188-1.458 0.39-1.704 0.754-2.958 2.524-2.938 4.406-2.766 0.028-5.538 0-8.304 0.008-0.424-0.008-0.864 0.052-1.27-0.108-0.532-0.202-0.978-0.642-1.18-1.178-0.086-0.208-0.078-0.442-0.16-0.652 0.016-1.91 0.342-3.82 1.020-5.604 0.726-1.918 1.83-3.702 3.226-5.206 1.612-1.716 3.61-3.066 5.798-3.932zM14.864 12.964c0.852-0.004 1.708-0.004 2.57 0 0.032-1.328-0.008-2.668 0.020-4-0.868-0.034-1.73 0-2.598-0.012-0.012 1.334-0.012 2.676 0.008 4.012zM8.52 11.622c-0.566 0.592-1.186 1.146-1.754 1.732-0.016 0.088 0.090 0.126 0.13 0.186 0.892 0.89 1.78 1.78 2.668 2.672 0.598-0.586 1.194-1.18 1.794-1.754-0.026-0.114-0.124-0.172-0.2-0.246-0.85-0.858-1.708-1.71-2.56-2.568-0.018-0.008-0.058-0.022-0.078-0.022zM4.376 18.098c-0.102 0.848-0.226 1.692-0.32 2.542 1.324 0.164 2.64 0.36 3.964 0.514 0.122-0.846 0.22-1.698 0.378-2.53-1.342-0.17-2.686-0.358-4.022-0.526z"/> <path d="M22.81 15.886c0.406-0.36 1.090-0.476 1.534-0.106 0.31 0.254 0.372 0.718 0.246 1.086-0.074 0.254-0.262 0.446-0.422 0.644-1.85 2.396-3.754 4.752-5.612 7.154 0.254 1.344-0.904 2.736-2.272 2.768-1.356 0.122-2.61-1.090-2.586-2.442-0.060-1.296 1.090-2.476 2.38-2.49 2.266-2.172 4.482-4.416 6.732-6.614z"/> </symbol><symbol viewBox="0 0 32 32" id="icon-ex-disc"><title>ex-disc</title>  <path d="M16.004 2c-7.736 0-14.004 6.268-14.004 14s6.268 14 14.004 14c7.73 0 14-6.268 14-14s-6.27-14-14-14zM24.054 20.568c0.124 0.126 0.2 0.298 0.2 0.478 0 0.182-0.074 0.354-0.2 0.48l-2.524 2.524c-0.128 0.124-0.3 0.2-0.48 0.2s-0.352-0.072-0.48-0.2l-4.566-4.566-4.572 4.566c-0.128 0.124-0.3 0.2-0.48 0.2s-0.352-0.072-0.48-0.2l-2.522-2.524c-0.126-0.124-0.2-0.296-0.2-0.48 0-0.176 0.072-0.352 0.2-0.476l4.566-4.57-4.566-4.568c-0.126-0.128-0.2-0.3-0.2-0.48s0.072-0.352 0.2-0.48l2.524-2.524c0.126-0.126 0.298-0.2 0.48-0.2 0.178 0 0.352 0.072 0.48 0.2l4.57 4.568 4.566-4.568c0.128-0.126 0.3-0.2 0.48-0.2s0.352 0.072 0.48 0.2l2.524 2.524c0.124 0.126 0.2 0.298 0.2 0.48 0 0.178-0.074 0.352-0.2 0.48l-4.566 4.568 4.566 4.568z"/> </symbol><symbol viewBox="0 0 32 32" id="icon-ex"><title>ex</title>  <path d="M7.020 27.85c0.388 0.388 1.024 0.39 1.412 0.002l6.864-6.862c0.388-0.388 1.028-0.388 1.416 0l6.864 6.862c0.384 0.388 1.028 0.386 1.414-0.002l2.81-2.834c0.382-0.39 0.378-1.028-0.004-1.418l-6.794-6.8c-0.384-0.386-0.384-1.028-0.004-1.416l6.802-6.86c0.378-0.39 0.378-1.030 0-1.418l-2.814-2.836c-0.39-0.39-1.026-0.39-1.414-0.002l-6.86 6.862c-0.39 0.388-1.032 0.388-1.416 0l-6.864-6.862c-0.39-0.39-1.024-0.388-1.412 0.002l-2.814 2.834c-0.388 0.39-0.388 1.030 0 1.42l6.806 6.858c0.386 0.39 0.386 1.028-0.002 1.416l-6.8 6.798c-0.388 0.39-0.39 1.032-0.002 1.418l2.812 2.838z"/> </symbol><symbol viewBox="0 0 32 32" id="icon-eye"><title>eye</title>  <path d="M16.004 4c-9.004 0-16.004 12-16.004 12s7.060 12 16.004 12c9 0 16-12 16-12s-6.938-12-16-12zM16.004 24c-4.42 0-8.004-3.582-8.004-8s3.582-8 8.004-8c4.418 0 8 3.582 8 8s-3.582 8-8 8z"/> <path d="M19.738 16c0 2.062-1.672 3.734-3.734 3.734s-3.734-1.672-3.734-3.734c0-2.062 1.672-3.734 3.734-3.734s3.734 1.672 3.734 3.734z"/> </symbol><symbol viewBox="0 0 32 32" id="icon-file"><title>file</title>  <path d="M25.004 14h-10c-0.552 0-1.004-0.45-1.004-1v-10c0-0.55-0.45-1-1-1h-6c-0.55 0-1 0.45-1 1v24.058c0 0.55 0.45 1 1 1h18.004c0.55 0 1-0.45 1-1v-12.058c0-0.55-0.45-1-1-1zM17.004 12h8c0.55 0 0.68-0.318 0.292-0.708l-8.586-8.584c-0.39-0.39-0.706-0.258-0.706 0.292v8c0 0.55 0.45 1 1 1z"/> </symbol><symbol viewBox="0 0 32 32" id="icon-hamburger-list"><title>hamburger-list</title>  <path d="M3.5 0h-1c-1.38 0-2.5 1.12-2.5 2.5v1c0 1.38 1.12 2.5 2.5 2.5h1c1.38 0 2.5-1.12 2.5-2.5v-1c0-1.38-1.12-2.5-2.5-2.5zM29.504 0h-17.004c-1.38 0-2.5 1.12-2.5 2.5v1c0 1.38 1.12 2.5 2.5 2.5h17.004c1.378 0 2.5-1.12 2.5-2.5v-1c0-1.38-1.122-2.5-2.5-2.5zM3.5 12h-1c-1.38 0-2.5 1.12-2.5 2.5v1c0 1.378 1.12 2.5 2.5 2.5h1c1.38 0 2.5-1.122 2.5-2.5v-1c0-1.38-1.12-2.5-2.5-2.5zM29.504 12h-17.004c-1.38 0-2.5 1.12-2.5 2.5v1c0 1.378 1.12 2.5 2.5 2.5h17.004c1.378 0 2.5-1.122 2.5-2.5v-1c0-1.38-1.122-2.5-2.5-2.5zM3.5 24h-1c-1.38 0-2.5 1.122-2.5 2.5v1c0 1.378 1.12 2.5 2.5 2.5h1c1.38 0 2.5-1.122 2.5-2.5v-1c0-1.378-1.12-2.5-2.5-2.5zM29.504 24h-17.004c-1.38 0-2.5 1.122-2.5 2.5v1c0 1.378 1.12 2.5 2.5 2.5h17.004c1.378 0 2.5-1.122 2.5-2.5v-1c0-1.378-1.122-2.5-2.5-2.5z"/> </symbol><symbol viewBox="0 0 32 32" id="icon-hamburger"><title>hamburger</title>  <path d="M29.504 12h-27.004c-1.38 0-2.5 1.12-2.5 2.5v1c0 1.378 1.12 2.5 2.5 2.5h27.004c1.378 0 2.5-1.122 2.5-2.5v-1c0-1.38-1.122-2.5-2.5-2.5zM29.504 0h-27.004c-1.38 0-2.5 1.12-2.5 2.5v1c0 1.38 1.12 2.5 2.5 2.5h27.004c1.378 0 2.5-1.12 2.5-2.5v-1c0-1.38-1.122-2.5-2.5-2.5zM29.504 24h-27.004c-1.38 0-2.5 1.122-2.5 2.5v1c0 1.378 1.12 2.5 2.5 2.5h27.004c1.378 0 2.5-1.122 2.5-2.5v-1c0-1.378-1.122-2.5-2.5-2.5z"/> </symbol><symbol viewBox="0 0 32 32" id="icon-house"><title>house</title>  <path d="M16.004 0l-16.004 16 2 2h2v12h9v-10h6.004v10h9v-12h2l2-2z"/> </symbol><symbol viewBox="0 0 32 32" id="icon-key"><title>key</title>  <path d="M27.454 15.428c-2.618-2.616-6.496-3.138-9.654-1.636l-11.798-11.792h-6.002v4h2v3.236l0.756 0.764h3.244v2h2v3.244h3.244l1.728 1.724-1.972 2.032 1.984 1.98c-0.124 2.324 0.67 4.692 2.446 6.468 3.32 3.306 8.704 3.306 12.024 0 3.316-3.32 3.316-8.702 0-12.020zM25.796 25.792c-1.292 1.292-3.386 1.292-4.676 0-1.292-1.292-1.292-3.384 0-4.676 1.29-1.292 3.376-1.292 4.676 0 1.29 1.292 1.29 3.388 0 4.676z"/> </symbol><symbol viewBox="0 0 32 32" id="icon-link"><title>link</title>  <path d="M17.372 18.418c-0.2-0.204-0.282-0.532-0.004-0.804l0.792-0.836c0.992-1.042 1.136-2.662 0.348-3.936-0.176-0.306-0.266-0.466-0.41-0.608l-5.608-5.61c-0.592-0.588-1.376-0.914-2.21-0.914-0.86 0-1.662 0.342-2.258 0.962l-0.474 0.536c-1.208 1.256-1.19 3.294 0.048 4.536l0.426 0.432c-0.556 0.814-1.144 2.12-1.354 3.316l-1.504-1.524c-1.272-1.274-1.968-2.974-1.964-4.784s0.708-3.506 1.984-4.774l0.254-0.246c1.274-1.266 2.974-1.964 4.786-1.964 1.818 0 3.522 0.702 4.796 1.974l5.516 5.528 0.336 0.402 0.13 0.178c1.452 1.808 1.87 4.202 1.12 6.4-0.344 1.014-0.876 1.88-1.578 2.586l-1.144 1.146-2.028-1.996zM21.778 29.8c-1.812 0-3.508-0.708-4.778-1.976l-5.578-5.542-0.236-0.29-0.144-0.184c-1.452-1.746-1.922-4.094-1.256-6.274 0.338-1.108 0.896-2.054 1.658-2.812l1.114-1.106 2.086 2.086c0.168 0.168 0.206 0.352 0.206 0.476 0 0.174-0.068 0.344-0.19 0.462l-0.848 0.874c-1.034 1.076-1.152 2.786-0.276 4.064l0.322 0.476 5.65 5.602c0.586 0.59 1.372 0.914 2.204 0.914 0.866 0 1.656-0.344 2.254-0.964l0.492-0.562c1.208-1.262 1.18-3.292-0.052-4.54l-0.37-0.352c0.598-0.872 1.292-2.308 1.328-3.632l1.464 1.454c2.64 2.636 2.64 6.938 0.008 9.566l-0.286 0.292c-1.268 1.266-2.964 1.968-4.772 1.968z"/> </symbol><symbol viewBox="0 0 32 32" id="icon-lock-open"><title>lock-open</title>  <path d="M25.004 14.118h-12.898v-6.17c0-2.176 1.77-3.948 3.952-3.948 2.176 0 3.946 1.77 3.946 3.948h4c0-4.39-3.554-7.948-7.946-7.948-4.394 0-7.952 3.558-7.952 7.948v6.17h-1.106c-0.55 0-1 0.45-1 1v11.94c0 0.55 0.45 1 1 1h18.004c0.55 0 1-0.45 1-1v-11.94c0-0.55-0.45-1-1-1z"/> </symbol><symbol viewBox="0 0 32 32" id="icon-lock"><title>lock</title>  <path d="M25.004 14.118h-1v-4.17c0-4.39-3.554-7.948-7.946-7.948-4.394 0-7.952 3.558-7.952 7.948v4.17h-1.106c-0.55 0-1 0.45-1 1v11.94c0 0.55 0.45 1 1 1h18.004c0.55 0 1-0.45 1-1v-11.94c0-0.55-0.45-1-1-1zM12.106 9.948c0-2.176 1.77-3.948 3.952-3.948 2.176 0 3.946 1.77 3.946 3.948v4.17h-7.898v-4.17z"/> </symbol><symbol viewBox="0 0 32 32" id="icon-loupe"><title>loupe</title>  <path d="M29.296 25.576l-8.46-8.456c1.050-1.71 1.668-3.716 1.668-5.876 0-6.21-5.040-11.248-11.254-11.248-6.212 0.004-11.25 5.042-11.25 11.254 0 6.21 5.038 11.25 11.25 11.25 2.152 0 4.16-0.618 5.872-1.664l8.458 8.458c0.388 0.39 1.030 0.39 1.414 0l2.302-2.292c0.388-0.4 0.388-1.038 0-1.426zM2.596 11.25c0-4.78 3.876-8.654 8.654-8.654 4.782 0 8.656 3.874 8.656 8.654 0 4.782-3.872 8.654-8.656 8.654-4.78 0-8.654-3.872-8.654-8.654z"/> </symbol><symbol viewBox="0 0 32 32" id="icon-minus"><title>minus</title>  <path d="M5 13c-0.55 0-1 0.45-1 1v4c0 0.55 0.45 1 1 1h22.004c0.55 0 1-0.45 1-1v-4c0-0.55-0.45-1-1-1h-22.004z"/> </symbol><symbol viewBox="0 0 32 32" id="icon-move-h"><title>move-h</title>  <path d="M29.808 15.506l-4.746-4.744c-0.582-0.584-1.058-0.386-1.058 0.44v2.798h-16.004v-2.738c0-0.826-0.478-1.022-1.060-0.44l-4.744 4.744c-0.272 0.272-0.272 0.718 0 0.988l4.744 4.744c0.582 0.584 1.060 0.384 1.060-0.438v-2.86h16.004v2.8c0 0.824 0.476 1.022 1.058 0.438l4.746-4.742c0.274-0.274 0.274-0.718 0-0.99z"/> </symbol><symbol viewBox="0 0 32 32" id="icon-move-v"><title>move-v</title>  <path d="M18.004 24v-16h2.796c0.828 0 1.024-0.478 0.442-1.060l-4.742-4.744c-0.274-0.272-0.72-0.272-0.994 0l-4.744 4.744c-0.584 0.584-0.386 1.060 0.44 1.060h2.798v16h-2.8c-0.826 0-1.022 0.476-0.44 1.058l4.748 4.746c0.274 0.274 0.72 0.274 0.99 0l4.746-4.746c0.58-0.582 0.38-1.058-0.444-1.058h-2.796z"/> </symbol><symbol viewBox="0 0 32 32" id="icon-move"><title>move</title>  <path d="M29.808 15.506l-4.746-4.744c-0.582-0.584-1.058-0.386-1.058 0.44v2.798h-6v-6h2.796c0.828 0 1.024-0.478 0.442-1.060l-4.742-4.744c-0.274-0.272-0.72-0.272-0.994 0l-4.744 4.744c-0.584 0.584-0.386 1.060 0.44 1.060h2.798v6h-6v-2.738c0-0.826-0.478-1.022-1.060-0.44l-4.744 4.744c-0.272 0.272-0.272 0.718 0 0.988l4.744 4.744c0.582 0.584 1.060 0.384 1.060-0.438v-2.86h6v6h-2.8c-0.826 0-1.022 0.476-0.44 1.058l4.748 4.746c0.274 0.274 0.72 0.274 0.99 0l4.746-4.746c0.58-0.582 0.38-1.058-0.444-1.058h-2.796v-6h6v2.8c0 0.824 0.476 1.022 1.058 0.438l4.746-4.742c0.274-0.274 0.274-0.718 0-0.99z"/> </symbol><symbol viewBox="0 0 32 32" id="icon-orgchart"><title>orgchart</title>  <path d="M30.004 22.554c0-1.442 0-2.942 0-4.028 0-2.912-1.648-4.5-4.5-4.5-2.856 0-7 0-7 0-0.278 0-0.5-0.224-0.5-0.5v-4.080c1.192-0.692 2-1.968 2-3.446 0-2.208-1.79-4-4-4-2.212 0-4.004 1.792-4.004 4 0 1.476 0.81 2.752 2 3.444v4.084c0 0.276-0.224 0.5-0.5 0.5 0 0-4.276 0-7 0s-4.5 1.836-4.5 4.504c0 1.042 0 2.554 0 4.024-1.19 0.706-2 1.968-2 3.458 0 2.208 1.792 4 4 4s4-1.792 4-4c0-1.464-0.81-2.754-2-3.458v-4.024c0-0.278 0.224-0.5 0.5-0.5h7.072c0.236 0.036 0.428 0.22 0.428 0.468v4.054c-1.19 0.694-2 1.966-2 3.446 0 2.208 1.792 4 4.004 4 2.21 0 4-1.792 4-4 0-1.476-0.808-2.752-2-3.446v-4.054c0-0.248 0.196-0.432 0.43-0.468h7.070c0.274 0 0.5 0.222 0.5 0.5v4.024c-1.192 0.706-2 1.968-2 3.458 0 2.208 1.792 4 4 4s4-1.792 4-4c0-1.49-0.808-2.768-2-3.46z"/> </symbol><symbol viewBox="0 0 32 32" id="icon-paintbrush"><title>paintbrush</title>  <path d="M16.368 15.856l-3.81 3.966-7.076-4.872 9.428-9.426 5.246 6.366-3.788 3.966zM12.876 0.81c-0.472-0.832-1.606-1.298-2.692 0.166-0.518 0.698-9.454 9.528-9.82 9.966-0.364 0.436-0.588 1.442 0.088 1.952 0.68 0.516 11.222 7.866 11.222 7.866l-0.45 0.458c1.4 1.458 1.632 1.708 2.092 1.726 1.5 0.032 4.070-2.914 5.156-1.708 1.082 1.208 7.074 7.958 7.074 7.958 1.020 1.062 2.61 1.118 3.63 0.082 1.042-1.042 1.082-2.622 0.050-3.696 0 0-5.484-5.27-7.808-7.238-1.156-0.958 1.738-4.102 1.708-5.678-0.016-0.476-0.25-0.722-1.646-2.19l-0.44 0.486c0 0.006-7.692-9.318-8.164-10.15z"/> </symbol><symbol viewBox="0 0 32 32" id="icon-pencil"><title>pencil</title>  <path d="M31.302 4.331l-3.63-3.628c-0.89-0.89-2.346-0.89-3.237 0l-2.96 2.96 6.867 6.867 2.96-2.96c0.89-0.89 0.89-2.348 0-3.239v0z"/> <path d="M10.024 28.844l-6.867-6.866 16.020-16.020 6.867 6.867-16.020 16.020z"/> <path d="M0.087 31.187c-0.199 0.6 0.126 0.909 0.723 0.714l4.58-1.527-3.777-3.768-1.527 4.58z"/> </symbol><symbol viewBox="0 0 32 32" id="icon-people"><title>people</title>  <path d="M13.444 22.582l0.902-0.34-0.33-0.64c-1.072-2.078-1.37-3.868-1.522-5.344-0.164-1.616-0.288-5.662 2.106-8.378 0.488-0.556 0.986-0.986 1.486-1.35 0.024-1.652-0.27-3.532-1.292-4.69-1.236-1.4-2.8-1.574-2.8-1.574l-0.994-0.11-0.996 0.11s-1.566 0.174-2.796 1.574c-1.234 1.404-1.434 3.896-1.25 5.71 0.12 1.166 0.34 2.526 1.148 4.1 0.548 1.066 0.682 1.234 0.71 2.020 0.044 1.19 0.054 2.306-1.342 3.076-1.394 0.766-3.128 1.016-4.806 2.176-1.192 0.82-1.418 2.066-1.56 2.918l-0.102 0.82c-0.058 0.546 0.346 0.996 0.896 0.996h10.024c0.914-0.48 1.78-0.804 2.518-1.074zM10.128 30.192c0.14-0.854 0.368-2.1 1.56-2.92 1.676-1.162 3.416-1.412 4.808-2.178 1.398-0.77 1.386-1.886 1.344-3.074-0.028-0.786-0.16-0.954-0.708-2.020-0.812-1.574-1.030-2.934-1.152-4.098-0.186-1.818 0.016-4.31 1.25-5.712 1.23-1.4 2.796-1.574 2.796-1.574l0.988-0.11 0.992 0.11s1.562 0.174 2.792 1.574c1.23 1.402 1.44 3.894 1.246 5.71-0.124 1.166-0.344 2.524-1.142 4.098-0.542 1.066-0.682 1.234-0.708 2.020-0.042 1.19-0.124 2.44 1.274 3.208 1.394 0.77 3.208 1.054 4.876 2.208 1.846 1.282 1.644 3.566 1.644 3.566-0.044 0.55-0.538 1-1.084 1h-19.982c-0.55 0-0.954-0.446-0.896-0.992l0.102-0.816z"/> </symbol><symbol viewBox="0 0 32 32" id="icon-person"><title>person</title>  <path d="M2 30c-0.55 0-0.996-0.45-0.992-1 0 0 0.014-1.492 2.142-3.024 2.276-1.636 4.694-1.938 6.616-2.996s1.908-2.598 1.85-4.23c-0.038-1.086-0.224-1.314-0.978-2.784-1.112-2.168-1.418-4.042-1.582-5.646-0.254-2.504 0.022-6.070 1.72-8.002 1.694-1.928 4.228-2.208 4.228-2.208l1-0.11 0.996 0.11s2.532 0.28 4.226 2.208c1.7 1.932 1.976 5.5 1.718 8.002-0.16 1.604-0.468 3.478-1.582 5.646-0.754 1.468-0.952 1.698-0.976 2.784-0.058 1.632-0.070 3.172 1.852 4.23s4.34 1.36 6.614 2.996c2.128 1.532 2.144 3.024 2.144 3.024 0.004 0.55-0.442 1-0.992 1h-28.004z"/> </symbol><symbol viewBox="0 0 32 32" id="icon-picture"><title>picture</title>  <path d="M30.004 4.058h-28.004c-1.1 0-2 0.9-2 2v20c0 1.1 0.9 2 2 2h28.004c1.098 0 2-0.9 2-2v-20c0-1.1-0.902-2-2-2zM9 8.058c1.656 0 3 1.344 3 3s-1.344 3-3 3-3-1.344-3-3 1.344-3 3-3zM27.004 24.058h-22.004c-0.55 0-0.75-0.376-0.446-0.832l2.89-4.336c0.304-0.458 0.874-0.516 1.262-0.124l2.586 2.586c0.388 0.388 1.026 0.388 1.414 0l6.59-6.586c0.376-0.388 0.988-0.356 1.332 0.074l6.75 8.438c0.344 0.43 0.176 0.78-0.374 0.78z"/> </symbol><symbol viewBox="0 0 32 32" id="icon-piechart"><title>piechart</title>  <path d="M16.004 14v-13.948l-1.002-0.052c-7.182 0-13.002 5.82-13.002 13l0.050 1h13.954zM20.004 3.11v14.89h-13.844c0.94 6.256 6.322 11.058 12.844 11.058 7.18 0 13-5.82 13-13 0-6.842-5.29-12.436-12-12.948z"/> </symbol><symbol viewBox="0 0 32 32" id="icon-pin"><title>pin</title>  <path d="M7.822 2.61c0.792-0.792 1.302-1.302 1.302-1.302l-1.302-1.304-7.822 7.82 1.304 1.304c0 0 0.51-0.51 1.302-1.302 6.516 6.516 1.956 8.47 8.472 14.99 1.16-1.162 10.574-10.574 11.734-11.732-6.516-6.518-8.472-1.956-14.99-8.474z"/> <path d="M27.422 24.816l-7.368-7.366-2.604 2.604 7.366 7.368 5.188 2.578z"/> </symbol><symbol viewBox="0 0 32 32" id="icon-plus"><title>plus</title>  <path d="M19.004 5.058c0-0.55-0.45-1-1-1h-4.004c-0.55 0-1 0.45-1 1v7c0 0.55-0.45 1-1 1h-7c-0.55 0-1 0.45-1 1v4c0 0.55 0.45 1 1 1h7c0.55 0 1 0.45 1 1v7c0 0.55 0.45 1 1 1h4.004c0.55 0 1-0.45 1-1v-7c0-0.55 0.45-1 1-1h7c0.55 0 1-0.45 1-1v-4c0-0.55-0.45-1-1-1h-7c-0.55 0-1-0.45-1-1v-7z"/> </symbol><symbol viewBox="0 0 32 32" id="icon-push-down"><title>push-down</title>  <path d="M27.036 24.020h-22.064c-0.55 0-1 0.446-1 1v4.98h24.064v-4.98c0-0.556-0.45-1-1-1zM15.268 17.372c0.388 0.386 1.030 0.386 1.416 0l6.586-6.584c0.386-0.388 0.258-0.708-0.292-0.708h-2c-0.55 0-1-0.45-1-1v-8.040c0-0.55-0.452-1-1-1h-6.004c-0.55 0-1 0.45-1 1v8.038c0 0.55-0.45 1-1 1h-2c-0.55 0-0.682 0.318-0.292 0.708l6.586 6.586z"/> </symbol><symbol viewBox="0 0 32 32" id="icon-push-left"><title>push-left</title>  <path d="M5 4h-4.982v24.058h4.982c0.552 0 1-0.45 1-1v-22.058c0-0.552-0.448-1-1-1zM29.004 12.058h-8c-0.55 0-1-0.45-1-1v-2c0-0.55-0.32-0.682-0.708-0.292l-6.588 6.584c-0.388 0.388-0.388 1.026 0 1.416l6.588 6.586c0.376 0.386 0.708 0.258 0.708-0.292v-2c0-0.542 0.454-1 1-1h8c0.55 0 1-0.45 1-1v-6c0-0.552-0.45-1.002-1-1.002z"/> </symbol><symbol viewBox="0 0 32 32" id="icon-push-right"><title>push-right</title>  <path d="M27.020 4c-0.55 0-1 0.448-1 1v22.058c0 0.55 0.45 1 1 1h4.984v-24.058h-4.984zM12.724 8.764c-0.388-0.388-0.706-0.256-0.706 0.294v2c0 0.55-0.45 1-1 1h-8c-0.55 0-1 0.45-1 1v6c0 0.542 0.45 1 1 1h8c0.55 0 1 0.45 1 1v2c0 0.542 0.318 0.68 0.708 0.292l6.59-6.586c0.386-0.388 0.386-1.026 0-1.416l-6.592-6.584z"/> </symbol><symbol viewBox="0 0 32 32" id="icon-push-up"><title>push-up</title>  <path d="M3.972 0.038v4.982c0 0.552 0.45 1 1 1h22.064c0.55 0 1-0.448 1-1v-4.982h-24.064zM16.684 12.668c-0.386-0.388-1.026-0.388-1.416 0l-6.588 6.586c-0.388 0.39-0.258 0.706 0.292 0.706h2c0.55 0 1 0.454 1 1v8.040c0 0.55 0.45 1 1 1h6.004c0.542 0 1-0.45 1-1v-8.040c0-0.548 0.45-1 1-1h2c0.542 0 0.68-0.316 0.29-0.708l-6.582-6.584z"/> </symbol><symbol viewBox="0 0 32 32" id="icon-puzzlepiece"><title>puzzlepiece</title>  <path d="M22.004 22v5.058c0 0.55-0.45 0.942-1 0.942h-6c-1.654 0-2.224-1.508-1.208-2.632l1.62-1.45c1.018-1.124 1.026-2.922-0.194-4.020-0.766-0.688-2.054-1.456-4.222-1.456s-3.454 0.772-4.218 1.462c-1.218 1.098-1.212 2.9-0.194 4.030l1.616 1.434c1.018 1.124 0.446 2.632-1.204 2.632h-6c-0.552 0-1-0.386-1-0.942v-18.058c0-0.552 0.448-1 1-1h6c1.65 0 2.222-1.536 1.204-2.664l-1.616-1.46c-1.020-1.126-1.026-2.93 0.194-4.028 0.764-0.688 2.050-1.462 4.218-1.462s3.456 0.774 4.222 1.462c1.216 1.096 1.212 2.9 0.194 4.028l-1.62 1.46c-1.018 1.128-0.446 2.664 1.206 2.664h6c0.548 0 1 0.448 1 1v5c0 1.65 1.284 2.222 2.466 1.204l1.542-1.616c1.198-1.020 3.094-1.026 4.254 0.194 0.728 0.766 1.544 2.050 1.544 4.218s-0.816 3.454-1.542 4.218c-1.16 1.208-3.058 1.208-4.254 0.194l-1.54-1.616c-1.186-1.018-2.468-0.446-2.468 1.204z"/> </symbol><symbol viewBox="0 0 32 32" id="icon-questionmark-disc"><title>questionmark-disc</title>  <path d="M16.004 2c-7.736 0-14.004 6.268-14.004 14s6.268 14 14.004 14c7.73 0 14-6.268 14-14s-6.27-14-14-14zM22.004 12c0 1.102-0.32 2.17-0.954 3.172l-0.316 0.44c-0.14 0.186-0.378 0.482-0.722 0.786-0.336 0.296-0.7 0.598-1.090 0.894l-0.406 0.378-0.282 0.258-0.192 0.34-0.042 0.47v1.26h-4.002v-1.408c0.052-0.792 0.156-1.46 0.408-1.998 0.25-0.538 0.542-0.996 0.878-1.376l0.45-0.42-0.020-0.030 0.352-0.28 0.274-0.256c0.372-0.278 0.714-0.554 1.032-0.834l0.296-0.36c0.196-0.304 0.336-0.646 0.336-1.036 0-1.104-0.894-2-2-2s-2.004 0.896-2.004 2h-4c0-3.314 2.686-6 6.004-6 3.312 0 6 2.686 6 6zM18.504 25.238c0 0.688-0.562 1.25-1.25 1.25h-2.5c-0.69 0-1.252-0.562-1.252-1.25v-2.476c0-0.688 0.562-1.25 1.252-1.25h2.5c0.688 0 1.25 0.562 1.25 1.25v2.476z"/> </symbol><symbol viewBox="0 0 32 32" id="icon-star-empty"><title>star-empty</title>  <path d="M30.91 10.936c-0.214-0.564-0.754-0.936-1.36-0.936h-8.52l-3.682-9.084c-0.216-0.554-0.75-0.916-1.344-0.916s-1.13 0.362-1.348 0.916l-3.686 9.084h-8.518c-0.602 0-1.142 0.372-1.356 0.936-0.216 0.564-0.058 1.2 0.392 1.6l6.876 6.214-2.244 9.46c-0.14 0.582 0.092 1.19 0.584 1.532 0.248 0.172 0.538 0.258 0.826 0.258 0.284 0 0.566-0.082 0.812-0.248l7.662-5.166 7.656 5.166c0.246 0.166 0.528 0.248 0.812 0.248 0.29 0 0.578-0.086 0.824-0.258 0.492-0.342 0.712-0.95 0.586-1.532l-2.242-9.46 6.876-6.214c0.448-0.4 0.608-1.038 0.394-1.6zM20.868 17.886l1.964 8.292-6.828-4.608-6.832 4.608 1.964-8.292-5.96-5.386h7.478l3.35-8.256 3.344 8.256h7.48l-5.96 5.386z"/> </symbol><symbol viewBox="0 0 32 32" id="icon-star"><title>star</title>  <path d="M24.472 30c-0.292 0-0.566-0.082-0.812-0.248l-7.656-5.166-7.66 5.166c-0.246 0.166-0.53 0.248-0.812 0.248-0.29 0-0.578-0.086-0.826-0.258-0.492-0.342-0.724-0.95-0.584-1.532l2.244-9.46-6.878-6.214c-0.45-0.4-0.606-1.038-0.392-1.6 0.212-0.564 0.752-0.936 1.356-0.936h8.518l3.686-9.084c0.218-0.554 0.754-0.916 1.348-0.916s1.128 0.362 1.348 0.916l3.68 9.084h8.524c0.612 0 1.14 0.372 1.366 0.936 0.208 0.562 0.048 1.202-0.392 1.6l-6.878 6.214 2.242 9.46c0.13 0.582-0.094 1.19-0.586 1.532-0.258 0.172-0.546 0.258-0.836 0.258z"/> </symbol><symbol viewBox="0 0 32 32" id="icon-twistie-down"><title>twistie-down</title>  <path d="M5.222 10.786c-0.34-0.432-0.168-0.786 0.382-0.786h20.794c0.55 0 0.722 0.354 0.382 0.786l-10.16 12.928c-0.34 0.432-0.904 0.432-1.244 0l-10.154-12.928z"/> </symbol><symbol viewBox="0 0 32 32" id="icon-twistie-left"><title>twistie-left</title>  <path d="M21.218 26.778c0.43 0.34 0.786 0.168 0.786-0.376v-20.798c0-0.55-0.356-0.722-0.786-0.382l-12.932 10.158c-0.432 0.34-0.432 0.898 0 1.238l12.932 10.16z"/> </symbol><symbol viewBox="0 0 32 32" id="icon-twistie-right"><title>twistie-right</title>  <path d="M10.788 26.778c-0.434 0.34-0.788 0.168-0.788-0.384v-20.79c0-0.55 0.354-0.722 0.786-0.382l12.932 10.158c0.434 0.34 0.434 0.898 0 1.238l-12.93 10.16z"/> </symbol><symbol viewBox="0 0 32 32" id="icon-twistie-up"><title>twistie-up</title>  <path d="M26.782 21.214c0.34 0.432 0.168 0.786-0.382 0.786h-20.796c-0.55 0-0.722-0.354-0.382-0.786l10.16-12.928c0.34-0.432 0.9-0.432 1.24 0l10.16 12.928z"/> </symbol><symbol viewBox="0 0 32 32" id="icon-warning"><title>warning</title>  <path d="M29.32 24.632l-10.632-21.266c-1.476-2.952-3.892-2.952-5.37 0l-10.634 21.266c-1.476 2.954 0.016 5.368 3.316 5.368h20.004c3.3 0 4.792-2.414 3.316-5.368zM14 8h4.004v10h-4.004v-10zM18.504 25.23c0 0.688-0.562 1.25-1.25 1.25h-2.5c-0.69 0-1.252-0.562-1.252-1.25v-2.478c0-0.688 0.562-1.25 1.252-1.25h2.5c0.688 0 1.25 0.562 1.25 1.25v2.478z"/> </symbol><symbol viewBox="0 0 32 32" id="icon-wrench"><title>wrench</title>  <path d="M28.832 23.172l-0.020-0.016v-0.002l-11.312-11.312c0.3-0.898 0.504-1.842 0.504-2.842 0-4.97-4.032-9-9.004-9-1.010 0-1.962 0.204-2.868 0.51l4.862 4.862-1.176 4.392-4.392 1.176-4.89-4.89c-0.324 0.928-0.536 1.912-0.536 2.95 0 4.972 4.028 9 9 9 1 0 1.944-0.204 2.842-0.502l11.334 11.33c1.562 1.562 4.094 1.562 5.656 0s1.562-4.094 0-5.656z"/> </symbol></svg>