<!-- Generated by IcoMoon.io -->
<svg version="1.1" xmlns="http://www.w3.org/2000/svg" width="1024" height="1024" viewBox="0 0 1024 1024">
<title>discord</title>
<path fill="#444" d="M859.585 193.118c-58.957-27.828-127.46-49.826-199.159-62.586l-4.999-0.738c-0.17-0.033-0.367-0.053-0.568-0.053-1.163 0-2.174 0.641-2.704 1.588l-0.008 0.016c-8.818 15.685-18.585 36.142-25.422 52.219-77.094-11.543-153.795-11.543-229.304 0-6.837-16.437-16.959-36.534-25.815-52.219-0.57-0.956-1.599-1.587-2.774-1.587-0.179 0-0.355 0.015-0.526 0.043l0.019-0.003c-76.689 13.463-145.196 35.461-209.22 65.442l5.056-2.127c-0.564 0.245-1.023 0.645-1.334 1.145l-0.007 0.013c-130.032 194.267-165.655 383.756-148.178 570.897 0.106 0.957 0.59 1.783 1.297 2.339l0.008 0.006c85.791 63.005 168.895 101.254 250.456 126.605 0.278 0.086 0.597 0.135 0.929 0.135 1.054 0 1.991-0.502 2.585-1.281l0.006-0.008c19.291-26.346 36.488-54.129 51.237-83.342 0.216-0.418 0.343-0.912 0.343-1.436 0-1.362-0.856-2.522-2.060-2.975l-0.022-0.007c-27.282-10.347-53.256-22.964-78.244-37.291-0.957-0.569-1.589-1.599-1.589-2.775 0-1.042 0.496-1.968 1.263-2.556l0.008-0.006c5.257-3.941 10.519-8.037 15.538-12.178 0.533-0.442 1.222-0.709 1.976-0.709 0.459 0 0.895 0.1 1.287 0.278l-0.020-0.008c164.151 74.946 341.859 74.946 504.071 0 0.388-0.189 0.844-0.3 1.327-0.3 0.743 0 1.426 0.263 1.959 0.701l-0.005-0.004c5.024 4.137 10.281 8.279 15.58 12.22 0.785 0.594 1.286 1.525 1.286 2.573 0 1.166-0.62 2.186-1.548 2.751l-0.015 0.008c-22.099 13.198-47.885 25.728-74.76 36.064l-3.516 1.189c-1.214 0.473-2.058 1.633-2.058 2.99 0 0.537 0.132 1.042 0.365 1.487l-0.009-0.018c15.062 29.171 32.259 56.954 51.196 83.3 0.583 0.812 1.524 1.335 2.588 1.335 0.332 0 0.652-0.051 0.953-0.146l-0.023 0.006c81.954-25.355 165.058-63.603 250.848-126.605 0.728-0.536 1.219-1.357 1.307-2.294l0.001-0.013c20.912-216.357-35.030-404.292-148.3-570.897-0.282-0.541-0.736-0.959-1.287-1.189l-0.017-0.006zM345.668 651.218c-49.419 0-90.142-45.373-90.142-101.095 0-55.717 39.932-101.090 90.146-101.090 50.602 0 90.927 45.771 90.137 101.095 0 55.717-39.932 101.090-90.142 101.090zM678.951 651.218c-49.419 0-90.142-45.373-90.142-101.095 0-55.717 39.928-101.090 90.142-101.090 50.602 0 90.927 45.771 90.137 101.095 0 55.717-39.536 101.090-90.137 101.090z"></path>
</svg>
