<!-- Generated by IcoMoon.io -->
<svg version="1.1" xmlns="http://www.w3.org/2000/svg" width="1024" height="1024" viewBox="0 0 1024 1024">
<title>drupal</title>
<path fill="#444" d="M866.897 157.187c-92.063-96.389-219.112-148.931-354.897-148.931-275.896 0-503.702 227.723-503.702 503.744s227.764 503.744 503.702 503.744 503.787-227.723 503.787-503.744c0-135.785-52.542-262.834-148.931-354.813zM512 840.522c-153.299 0-275.938-122.639-275.938-275.938 0-127.049 87.569-214.66 162.035-289.126 52.584-52.584 100.799-100.799 113.903-157.709 13.146 52.584 61.319 100.757 113.903 153.299 74.465 74.508 162.077 162.118 162.077 289.126 0 153.299-122.639 275.98-275.98 280.348z"></path>
</svg>
