<!-- Generated by IcoMoon.io -->
<svg version="1.1" xmlns="http://www.w3.org/2000/svg" width="1024" height="1024" viewBox="0 0 1024 1024">
<title>drupal</title>
<path fill="#444" d="M670.774 218.424c-71.016-70.833-138.554-138.554-158.687-214.695-19.767 76.141-87.854 143.862-158.87 214.695-106.341 106.341-226.958 226.775-226.958 407.609-0.058 2.502-0.092 5.448-0.092 8.403 0 213.087 172.741 385.828 385.828 385.828s385.828-172.741 385.828-385.828c0-2.954-0.033-5.902-0.099-8.841l0.008 0.438c0-180.834-120.618-301.268-226.958-407.609zM324.663 661.175c-11.178 13.949-21.233 29.682-29.524 46.443l-0.676 1.511c-1.257 2.715-3.634 4.732-6.52 5.476l-0.069 0.015h-3.294c-8.603 0-18.303-16.839-18.303-16.839v0c-2.563-4.027-4.942-8.236-7.321-12.629l-1.647-3.477c-22.33-51.065-2.929-123.729-2.929-123.729v0c10.362-37.708 26.169-70.689 46.8-100.035l-0.676 1.015c13.947-20.716 27.665-38.619 42.359-55.655l-0.629 0.745 18.303 18.303 86.39 88.22c1.561 1.741 2.516 4.053 2.516 6.589s-0.955 4.849-2.525 6.598l0.008-0.009-90.234 100.118zM516.479 913.94c-73.356-0.441-132.652-60.009-132.652-133.427 0-34.149 12.828-65.301 33.929-88.901l-0.113 0.129c28.186-33.495 62.597-66.44 99.935-109.819 44.294 47.222 73.213 79.618 101.582 115.126 2.101 2.571 4.041 5.445 5.71 8.491l0.148 0.293c14.884 20.954 23.794 47.058 23.794 75.244 0 0.058 0 0.116 0 0.174v-0.009c0 0.108 0.001 0.237 0.001 0.366 0 73.085-59.246 132.331-132.331 132.331 0 0 0 0 0 0v0zM766.865 701.807v0c-1.762 5.542-6.434 9.663-12.174 10.604l-0.089 0.012h-2.563c-5.336-1.765-9.674-5.331-12.389-9.961l-0.057-0.105c-24.41-36.353-50.181-68.112-78.515-97.374l0.178 0.185-152.647-158.321c-24.681-22.911-47.625-46.435-69.362-71.050l-0.921-1.064c-0.604-1.051-1.209-1.948-1.871-2.799l0.040 0.053c-3.785-5.261-6.948-11.32-9.186-17.809l-0.149-0.494c0-1.098 0-2.38 0-3.477-0.518-3.017-0.814-6.49-0.814-10.033 0-17.623 7.326-33.534 19.097-44.857l0.021-0.020c22.696-22.696 45.575-45.575 67.172-69.368 23.794 26.356 49.235 51.615 74.31 76.69v0c50.542 47.155 95.936 98.53 136.068 153.966l2.12 3.075c33.063 46.323 53.065 103.959 53.627 166.238l0.001 0.138c-0.314 27.148-4.641 53.171-12.414 77.661l0.517-1.886z"></path>
</svg>
