<!-- Generated by IcoMoon.io -->
<svg version="1.1" xmlns="http://www.w3.org/2000/svg" width="1024" height="1024" viewBox="0 0 1024 1024">
<title>github</title>
<path fill="#444" d="M512 8.203c-278.348 0-503.797 225.575-503.797 503.797 0 222.615 144.338 411.413 344.471 477.977 25.19 4.723 34.447-10.832 34.447-24.245 0-11.965-0.441-43.641-0.63-85.645-140.182 30.417-169.717-67.572-169.717-67.572-22.923-58.189-56.047-73.68-56.047-73.68-45.657-31.235 3.527-30.606 3.527-30.606 50.569 3.527 77.144 51.891 77.144 51.891 44.964 77.018 117.951 54.788 146.731 41.878 4.534-32.558 17.507-54.788 31.928-67.383-111.906-12.595-229.48-55.921-229.48-248.939 0-54.977 19.522-99.941 51.828-135.207-5.668-12.721-22.671-63.919 4.408-133.317 0 0 42.193-13.54 138.544 51.639 40.304-11.209 83.127-16.751 125.949-17.003 42.823 0.252 85.645 5.794 125.949 17.003 95.721-65.179 137.914-51.639 137.914-51.639 27.079 69.398 10.076 120.596 5.038 133.317 32.117 35.266 51.639 80.23 51.639 135.207 0 193.521-117.763 236.155-229.857 248.561 17.633 15.114 34.006 45.971 34.006 93.202 0 67.383-0.63 121.541-0.63 137.914 0 13.225 8.816 28.968 34.636 23.93 201.582-66.060 345.794-254.984 345.794-477.285 0-278.222-225.575-503.797-503.797-503.797z"></path>
</svg>
