<!-- Generated by IcoMoon.io -->
<svg version="1.1" xmlns="http://www.w3.org/2000/svg" width="1024" height="1024" viewBox="0 0 1024 1024">
<title>gitlab</title>
<path fill="#444" d="M990.888 412.622l-1.391-3.559-134.856-351.935c-2.838-7.014-7.648-12.739-13.738-16.635l-0.141-0.084c-5.41-3.406-11.989-5.427-19.040-5.427-8.42 0-16.166 2.881-22.307 7.711l0.077-0.058c-5.646 4.61-9.837 10.806-11.908 17.905l-0.064 0.255-91.047 278.572h-368.694l-91.056-278.572c-2.077-7.394-6.28-13.62-11.905-18.161l-0.068-0.052c-6.063-4.767-13.807-7.648-22.224-7.648-7.053 0-13.636 2.022-19.196 5.519l0.151-0.088c-6.217 3.996-11.021 9.713-13.793 16.478l-0.086 0.236-136.446 355.336c-10.473 26.561-16.544 57.324-16.544 89.508 0 81.391 38.834 153.716 98.982 199.451l0.616 0.451 0.466 0.358 1.238 0.88 205.42 153.834 163.539 123.656c6.908 5.289 15.67 8.475 25.176 8.475s18.267-3.186 25.276-8.548l-0.1 0.074 61.903-46.736 101.632-76.921 207.175-155.176c60.656-46.21 99.406-118.483 99.406-199.807 0-32.1-6.038-62.79-17.040-90.998l0.585 1.706z"></path>
</svg>
