<!-- Generated by IcoMoon.io -->
<svg version="1.1" xmlns="http://www.w3.org/2000/svg" width="1024" height="1024" viewBox="0 0 1024 1024">
<title>mdn</title>
<path fill="#444" d="M0 0v1024h1024v-1024zM450.731 212.011c28.459-2.005 42.709 2.816 67.84 10.325l18.603 5.547 6.485 1.963 23.765 7.253c15.573 4.224 31.915 4.48 47.573 0.725 6.645-1.826 14.275-2.876 22.15-2.876 15.013 0 29.136 3.814 41.451 10.527l-0.455-0.227c17.451 9.941 29.184 27.648 31.445 47.573 2.048 17.621 12.288 33.28 27.648 42.197 22.912 12.501 46.763 22.955 71.339 31.403 17.365 6.656 34.773 14.123 52.011 20.821 8.533 3.285 16.085 8.661 21.931 15.787 4.722 5.682 7.795 12.886 8.398 20.781l0.008 0.126c1.067 15.317 2.901 30.805 3.669 46.251h-0.085c1.195 21.333-3.413 42.539-13.525 61.397-3.712 7.040-7.808 13.696-11.221 20.736-4.147 9.392-13.379 15.828-24.114 15.828-1.050 0-2.085-0.062-3.103-0.181l0.123 0.012c-0.226-0.010-0.491-0.016-0.758-0.016-4.197 0-8.054 1.453-11.097 3.884l0.036-0.027c-10.496 6.869-21.205 13.653-32 20.096-14.933 8.235-32.853 9.216-48.683 2.56-24.16-9.481-52.137-14.976-81.397-14.976-0.004 0-0.007 0-0.011 0v0c-0.829-0.027-1.804-0.043-2.782-0.043-28.056 0-53.115 12.834-69.626 32.952l-0.126 0.158c-6.832 9.407-12.359 20.32-16.002 32.061l-0.212 0.792c-9.515 23.467-17.664 163.755-17.664 199.509 0 0-134.869-26.24-261.547-155.861l33.024-86.613h-103.424l74.837-79.189h-128.597l74.752-79.275h-122.155l136.021-144.341c40.463-40.161 91.847-69.371 149.304-82.783l2.12-0.417c13.568-2.347 24.576-3.797 34.048-4.437z"></path>
</svg>
