<!-- Generated by IcoMoon.io -->
<svg version="1.1" xmlns="http://www.w3.org/2000/svg" width="1024" height="1024" viewBox="0 0 1024 1024">
<title>pinterest</title>
<path fill="#444" d="M512.725 0c-282.496 0-511.488 228.992-511.488 511.445 0 216.704 134.741 401.792 325.035 476.245-4.48-40.491-8.491-102.528 1.749-146.731 9.344-39.979 59.989-254.165 59.989-254.165s-15.317-30.72-15.317-75.989c0-70.955 41.259-124.203 92.501-124.203 43.691 0 64.768 32.811 64.768 72.021 0 43.904-27.861 109.525-42.325 170.325-12.16 50.901 25.6 92.373 75.733 92.373 90.795 0 160.768-95.787 160.768-234.112 0-122.069-88.021-207.744-213.675-207.744-145.493 0-230.784 109.312-230.784 221.824 0 44.075 16.811 91.435 37.931 116.949 4.224 5.12 4.779 9.6 3.627 14.72-3.84 16-12.501 51.157-14.251 58.155-2.261 9.6-7.339 11.563-17.109 7.040-63.787-29.44-103.808-122.795-103.808-198.229 0-161.109 117.248-309.419 337.92-309.419 177.408 0 315.392 126.592 315.392 295.381 0 176.427-111.232 318.379-265.941 318.379-51.797 0-100.437-26.837-117.675-58.837l-31.957 121.515c-11.477 44.587-42.837 100.352-63.915 134.229 47.915 14.72 98.389 22.827 151.467 22.827 281.899 0 511.36-228.907 511.36-511.445 0-282.581-229.461-511.445-511.36-511.445l1.365-1.109z"></path>
</svg>
