<!-- Generated by IcoMoon.io -->
<svg version="1.1" xmlns="http://www.w3.org/2000/svg" width="1024" height="1024" viewBox="0 0 1024 1024">
<title>steam</title>
<path fill="#444" d="M511.118 8c-264.642 0-481.656 204.12-502.194 463.554l270.144 111.636c22.89-15.582 50.526-24.78 80.304-24.78 2.646 0 5.25 0.168 7.896 0.252l120.162-173.964v-2.478c0-104.79 85.176-190.008 190.008-190.008 104.748 0 190.008 85.302 190.008 190.134s-85.26 190.050-190.008 190.050h-4.41l-171.192 122.262c0 2.184 0.168 4.41 0.168 6.678 0 78.75-63.63 142.632-142.38 142.632-68.67 0-126.672-49.266-139.902-114.534l-193.41-80.094c59.892 211.554 254.1 366.66 484.806 366.66 278.334 0 503.958-225.666 503.958-504s-225.666-504-503.958-504zM324.68 772.82l-61.866-25.62c11.004 22.806 29.988 41.958 55.188 52.5 54.474 22.638 117.306-3.192 139.944-57.75 11.046-26.46 11.088-55.398 0.21-81.858s-31.5-47.082-57.834-58.086c-26.208-10.92-54.18-10.458-78.876-1.26l63.966 26.46c40.152 16.8 59.178 63 42.378 103.11-16.674 40.194-62.874 59.22-103.068 42.504h-0.042zM804.11 382.094c0-69.804-56.826-126.63-126.63-126.63-69.93 0-126.63 56.826-126.63 126.63 0 69.93 56.7 126.63 126.63 126.63 69.846 0 126.63-56.7 126.63-126.63zM582.644 381.884c0-52.584 42.546-95.172 95.13-95.172 52.458 0 95.172 42.588 95.172 95.172 0 52.542-42.714 95.13-95.172 95.13-52.626 0-95.13-42.588-95.13-95.13z"></path>
</svg>
