<!-- Google+ icon stolen from the Font Awesome set on Icomoon, resized and
     artboard made square in Illustrator, and run through Icomoon again. -->

<svg viewBox="0 0 1024 1024">
	<title>Google+ icon (uppercase stylized letter G with a plus after it)</title>
	<path d="M636.793 519.456c0 183.783-123.252 314.055-308.79 314.055-177.643 0-321.511-143.869-321.511-321.511s143.869-321.51 321.511-321.51c86.847 0 159.22 31.581 215.363 84.215l-87.286 83.777c-23.685-22.808-65.354-49.564-128.077-49.564-109.656 0-199.135 90.795-199.135 203.082s89.479 203.082 199.135 203.082c127.2 0 175.011-91.673 182.467-138.604h-182.467v-110.533h303.527c3.071 16.228 5.263 32.458 5.263 53.511v0zM1017.079 465.945v92.111h-91.672v91.672h-92.111v-91.672h-91.673v-92.111h91.673v-91.673h92.111v91.673h91.672z"></path>
</svg>
