<!-- Instagram icon stolen from the Entypo set on Icomoon -->
<svg viewBox="0 0 1024 1024">
	<title>Instagram icon (old style camera as seen from the front)</title>
	<path class="path1" d="M778.24 512c0 147.046-119.245 266.24-266.24 266.24-147.046 0-266.24-119.194-266.24-266.24 0-17.51 1.741-34.611 5.018-51.2h-179.098v353.894c0 75.981 61.542 137.626 137.626 137.626h605.389c75.981 0 137.626-61.594 137.626-137.626v-353.894h-179.046c3.226 16.589 4.966 33.69 4.966 51.2zM814.694 71.68h-605.389c-76.032 0-137.626 61.645-137.626 137.626v149.094h222.925c48.179-68.096 127.59-112.64 217.395-112.64s169.216 44.544 217.395 112.64h222.925v-149.094c0-75.981-61.645-137.626-137.626-137.626zM882.022 241.664c0 13.568-11.059 24.576-24.576 24.576h-73.677c-13.517 0-24.576-11.059-24.576-24.576v-73.728c0-13.568 11.11-24.576 24.576-24.576h73.677c13.568 0 24.576 11.059 24.576 24.576v73.728zM675.84 512c0-90.522-73.37-163.84-163.84-163.84s-163.84 73.318-163.84 163.84 73.37 163.84 163.84 163.84 163.84-73.318 163.84-163.84z"></path>
</svg>
