<!-- Generated by IcoMoon.io -->
<svg version="1.1" xmlns="http://www.w3.org/2000/svg" width="878" height="1024" viewBox="0 0 878 1024">
<title>paypal</title>
<path d="M868 369.143v0c7.429 34.286 5.714 73.714-2.286 116.571-37.143 188.571-162.286 253.714-322.857 253.714h-25.143c-19.429 0-35.429 14.286-38.857 33.714l-2.286 10.857-31.429 197.714-1.143 8.571c-4 19.429-20 33.714-39.429 33.714h-143.429c-16 0-26.286-13.143-24-29.143 10.286-64 20-128 30.286-192s20.571-127.429 30.857-191.429c1.714-13.714 10.857-21.143 24.571-21.143 22.857 0 45.714-0.571 74.857 0 41.143 0.571 88.571-1.714 134.857-12 61.714-13.714 117.714-38.857 164-82.286 41.714-38.857 69.714-86.857 88.571-140.571 8.571-25.143 15.429-50.286 20-76 1.143-6.857 2.857-5.714 6.857-2.857 31.429 23.429 49.143 54.857 56 92.571zM769.714 208c0 46.857-10.857 91.429-26.286 134.857-29.714 86.286-85.714 148-172.571 180-46.286 16.571-94.857 23.429-144 24-34.286 0.571-68.571 0-102.857 0-37.143 0-60.571 18.286-67.429 54.857-8 43.429-39.429 245.714-48.571 302.857-0.571 4-2.286 5.714-6.857 5.714h-168.571c-17.143 0-29.714-14.857-27.429-31.429l132.571-840.571c3.429-21.714 22.857-38.286 45.143-38.286h341.714c24.571 0 81.143 10.857 119.429 25.714 81.143 31.429 125.714 95.429 125.714 182.286z"></path>
</svg>
