<!-- Pinterest icon stolen from the Entypo set on Icomoon -->
<svg viewBox="0 0 1024 1024">
	<title>Pinterest icon (stylized letter P)</title>
	<path class="path1" d="M441.139 677.274c-26.88 140.954-59.699 276.122-156.979 346.726-30.003-213.094 44.083-373.094 78.49-542.976-58.675-98.816 7.066-297.574 130.867-248.576 152.32 60.262-131.891 367.258 58.88 405.606 199.219 40.038 280.525-345.6 157.030-470.989-178.483-181.146-519.578-4.198-477.594 255.027 10.189 63.386 75.674 82.637 26.163 170.086-114.227-25.293-148.326-115.405-143.923-235.52 7.066-196.557 176.64-334.182 346.726-353.229 215.142-24.115 417.024 78.95 444.826 281.293 31.386 228.352-97.024 475.699-327.117 457.882-62.31-4.762-88.474-35.635-137.37-65.331z"></path>
</svg>
