<!-- Twitter icon stolen from the Entypo set on Icomoon -->
<svg viewBox="0 0 1024 1024">
	<title>Twitter icon (flying bird)</title>
	<path class="path1" d="M983.040 219.802c-34.714 15.411-71.936 25.754-111.053 30.464 39.936-23.91 70.605-61.798 84.992-106.906-37.325 22.118-78.694 38.246-122.675 46.899-35.277-37.581-85.504-61.030-141.107-61.030-106.752 0-193.28 86.528-193.28 193.229 0 15.155 1.69 29.901 5.018 44.032-160.614-8.038-303.053-84.992-398.336-201.933-16.691 28.518-26.266 61.747-26.266 97.178 0 67.072 34.15 126.208 86.016 160.87-31.693-1.024-61.491-9.677-87.552-24.166 0 0.819 0 1.587 0 2.406 0 93.645 66.662 171.725 155.034 189.542-16.179 4.403-33.28 6.758-50.944 6.758-12.442 0-24.525-1.178-36.352-3.43 24.576 76.8 96 132.659 180.531 134.195-66.15 51.866-149.453 82.739-240.026 82.739-15.616 0-30.976-0.922-46.080-2.714 85.504 54.835 187.085 86.835 296.294 86.835 355.482 0 549.888-294.502 549.888-549.939 0-8.346-0.154-16.691-0.563-24.986 37.786-27.238 70.502-61.286 96.461-100.045z"></path>
</svg>
