<!-- Wikipedia icon stolen from the Brands set on Icomoon -->
<svg version="1.1" xmlns="http://www.w3.org/2000/svg" width="1024" height="1024" viewBox="0 0 1024 1024">
	<title>Wikipedia icon (a stylized letter "W").</title>
	<path d="M514.816 559.872c-39.872 82.24-94.4 193.664-121.472 243.84-26.24 45.76-48 39.68-65.28 1.28-59.84-141.44-182.784-389.376-240.64-528.384-10.688-25.6-18.752-42.048-26.368-48.512-7.68-6.4-23.552-10.24-47.744-11.52-8.96-1.088-13.312-3.2-13.312-6.784v-19.392l2.176-1.92c39.36-0.192 230.016 0 230.016 0l2.176 1.92v18.432c0 5.12-3.2 7.552-9.6 7.552l-24 1.28c-20.608 1.28-30.912 7.040-30.912 18.56 0 5.76 2.176 14.080 7.040 25.6 46.080 112.64 205.184 448 205.184 448l5.76 1.92 102.656-204.8-20.48-45.44-70.656-138.944s-13.568-27.84-18.24-37.12c-30.976-61.44-30.272-64.64-61.632-68.864-8.768-1.024-13.312-2.112-13.312-6.4v-19.84l2.56-1.92h182.784l4.8 1.6v19.2c0 4.48-3.2 6.4-9.6 6.4l-13.12 1.984c-33.728 2.56-28.16 16.256-5.76 60.544l67.328 138.496 74.88-149.248c12.48-27.2 9.92-34.048 4.736-40.32-3.008-3.584-12.992-9.344-34.56-10.24l-8.576-0.896c-2.176 0-4.16-0.64-6.144-2.176-1.92-1.28-2.88-3.2-2.88-5.44v-18.24l2.56-1.92c53.12-0.32 172.16 0 172.16 0l2.56 1.92v18.56c0 5.12-2.56 7.552-8.32 7.552-27.52 1.28-33.28 4.032-43.52 18.688-5.12 7.936-16 25.088-27.52 44.288l-97.984 181.952-2.816 5.76 118.912 243.2 7.232 2.048 187.264-444.48c6.528-17.92 5.504-30.72-2.816-38.080-8.32-7.296-14.72-11.648-36.48-12.544l-17.92-0.64c-2.56 0-4.48-0.64-6.4-1.92s-3.2-3.2-3.2-5.12v-18.56l2.56-1.92h211.2l1.92 1.92v18.56c0 5.12-3.2 7.68-8.96 7.68-27.52 1.28-48 7.68-61.44 17.92-13.44 10.88-23.68 26.24-31.36 45.44 0 0-172.16 394.24-231.040 525.44-22.4 42.88-44.8 39.040-64-1.28-24.32-49.92-75.52-161.28-112.64-243.2z"></path>
</svg>
