<!-- Generated by IcoMoon.io -->
<svg version="1.1" xmlns="http://www.w3.org/2000/svg" width="1024" height="1024" viewBox="0 0 1024 1024">
<title>gitlab</title>
<path d="M1005.014 586.889c-0.018-0.299-0.011-0.598-0.034-0.895-0.006-0.085-0.022-0.17-0.028-0.253-0.229-2.851-0.769-5.707-1.669-8.516l-164.496-506.373c-0.006-0.014-0.011-0.026-0.018-0.040l-0.043-0.136c-3.313-9.896-14.027-15.233-23.924-11.918-5.624 1.884-10.038 6.296-11.92 11.918l-109.306 336.532h-363.060l-109.463-336.532c-3.289-9.89-13.972-15.24-23.861-11.953-5.647 1.878-10.077 6.308-11.954 11.953l-164.468 506.49c-5.034 15.483 0.459 32.447 13.613 42.038l477.629 347.048 477.598-347.048c10.454-7.595 16.050-19.848 15.404-32.315z"></path>
</svg>
