<!-- Steam icon modified from http://boneyardbrew.deviantart.com/art/Modern-Steam-Icon-421263397
     and run through IcoMoon, shrunk slightly -->

<svg viewBox="0 0 1024 1024">
	<title>Steam icon (a steam piston)</title>
	<path d="M903 349.636c0 64.064-51.924 115.988-115.988 115.988s-115.988-51.928-115.988-115.988 51.932-115.98 115.988-115.98c64.060 0 115.984 51.924 115.988 115.98zM1013.464 349.648c0 125.064-101.388 226.44-226.444 226.44-0.116 0-0.236-0.008-0.356-0.008l-226.584 147.776c0.292 4.096 0.492 8.224 0.492 12.4 0 94.564-76.656 171.22-171.216 171.22-83.584 0-153.132-59.908-168.164-139.108l-221.188-91.068v-199.32l291.696 117.664c27.7-19.272 61.34-30.604 97.648-30.604 7.816 0 15.492 0.572 23.020 1.584l148.204-217.368c0.212-124.892 101.5-226.068 226.44-226.068 125.056 0.004 226.452 101.4 226.452 226.46zM516.372 736.252c0-70.164-56.88-127.036-127.036-127.036-15.584 0-30.496 2.824-44.288 7.952l79.788 32.18c0.516 0.212 1.040 0.408 1.552 0.628l6.22 2.5-0.172 0.412c30.16 15.628 50.8 47.068 50.8 83.364 0 51.86-42.040 93.892-93.896 93.892-10.108 0-19.828-1.636-28.952-4.596l-0.044 0.104-2.696-1.112c-2.736-0.984-5.412-2.072-8.020-3.296l-75.272-30.988c20.304 43.148 64.148 73.036 114.992 73.036 70.16-0.008 127.024-56.88 127.024-127.040zM947.176 349.636c0-88.456-71.708-160.168-160.164-160.168-88.468 0-160.172 71.704-160.172 160.168s71.704 160.172 160.172 160.172c88.456 0 160.164-71.716 160.164-160.172z"></path>
</svg>
