<!-- Vimeo icon stolen from the Font Awesome set on Icomoon -->
<svg viewBox="0 0 1024 1024">
	<title>Vimeo icon (stylized letter "V")</title>
	<path d="M976.571 296c-4 90.286-67.429 214.286-189.714 372-126.857 164-233.143 246.286-321.143 246.286-54.286 0-100-50.286-137.143-150.286-25.143-91.429-50.286-183.429-75.429-275.429-27.429-100-57.714-149.714-89.714-149.714-6.857 0-30.857 14.286-72.571 43.429l-44-56c45.714-40.571 90.857-81.714 136-121.143 60.571-53.714 106.857-80.571 137.714-83.429 72.571-6.857 116.571 42.286 133.714 148 17.714 114.286 30.857 185.714 37.714 213.143 21.143 94.857 43.429 142.286 68.571 142.286 19.429 0 48.571-30.286 88-92 38.857-61.714 59.429-108.571 62.286-140.571 5.143-53.143-15.429-79.429-62.286-79.429-22.286 0-45.143 5.143-69.143 14.857 45.714-149.714 133.143-222.286 262.286-218.286 95.429 2.857 140.571 65.143 134.857 186.286z"></path>
</svg>
